<?xml version="1.0" encoding="utf-8"?>
<!-- Generator: Adobe Illustrator 22.0.1, SVG Export Plug-In . SVG Version: 6.00 Build 0)  -->
<svg version="1.1" id="Layer_1" xmlns="http://www.w3.org/2000/svg" xmlns:xlink="http://www.w3.org/1999/xlink" x="0px" y="0px"
	 viewBox="0 0 320 380" style="enable-background:new 0 0 320 380;" xml:space="preserve">
<style type="text/css">
	.st0{fill:none;}
	.st1{fill:#A7A9AC;stroke:#000000;stroke-width:2.2993;stroke-miterlimit:10;}
	.st2{fill:#D1D3D4;stroke:#000000;stroke-width:2.2993;stroke-miterlimit:10;}
	.st3{fill:#FFFFFF;stroke:#000000;stroke-width:2.2993;stroke-miterlimit:10;}
	.st4{fill:none;stroke:#000000;stroke-width:2.2993;stroke-miterlimit:10;}
	.st5{fill:none;stroke:#000000;stroke-width:0.8048;stroke-miterlimit:10;}
	.st6{fill:none;stroke:#000000;stroke-width:0.5;stroke-miterlimit:10;}
	.st7{font-family:'Roboto-Light';}
	.st8{font-size:15px;}
	.st9{fill:#FFFFFF;stroke:#A7A9AC;stroke-width:2.2993;stroke-miterlimit:10;}
	.st10{fill:none;stroke:#A7A9AC;stroke-width:0.8048;stroke-miterlimit:10;}
	.st11{fill:#808285;}
	.st12{font-family:'Roboto-LightItalic';}
	@keyframes baja{
		from{transform:translate(0,0);}
		to{transform:translate(0,86px);}
	}
	#animacion{
		  animation: baja 5s alternate infinite;
	}	
</style>
<rect x="-92.8" y="16.9" class="st0" width="55.6" height="32.4"/>
<path class="st1" d="M58.5,255.9c0,0,6.1-2.1,10.1-3.1s39.6-1.8,45.3-1.1c5.8,0.8,5.6,1.5,7.7,2.4s5.3,0,4,3.6
	c-1.4,3.6-12.6,13-22.7,14.5s-31.6,1.7-37.9-3.1C58.7,264.5,58.5,255.9,58.5,255.9z"/>
<path class="st2" d="M77.3,314.8c0.4,0.4,0.7,4.2,4,9.4c3.3,5.2,27.7,13.2,34.9,14.6c7.2,1.4,10.5,2.3,15.7-1.2
	c5.2-3.5,6-2.6,10.7-8.9c4.8-6.3,3.9-8.5,8.3-12.8c4.4-4.3,4.6-4.3,8.3-6.2s2.9-3.9,8.4-3.7c5.6,0.3,9.8-1,11.7,0.7s4.5,3.6,6.7,2.5
	s2.3-5.2-0.9-7.6s-6.4-6.3-10.5-7.4s-8.5-2.7-14.7,0.2c-6.2,2.8-8.5,3.4-15.8,8.3c0,0-7.2,3.6-12.7,4.6s-11.8-13.1-16.5-16.5
	c-4.7-3.3-14.8-2.6-16.1-2.3C97.6,289,77.3,314.8,77.3,314.8z"/>
<path class="st3" d="M67.7,238.7c-0.5-0.7-3.9-2.4-4-4.6c-0.1-2.3-0.9-2.7-1.7-5c-0.9-2.2-1.7-4.7-1.1-6.5c0.7-1.8,1.6-4.1,3-7
	c1.4-2.9,2.8-5.7,3.4-8c0.7-2.3,0.6-3.6,1.8-5.7c1.2-2.1,2.4-3.7,3.1-4.2s4.9-2.8,4.9-2.8l-1.9-3.7c-0.4-3.3-1.4-2-0.9-7.6
	s1.6-7.8,3.1-10.3s1.3-4.4,5.3-5.6c4-1.2,8.1-0.4,10.8,2.4c2.7,2.8,3.7,3,4.1,7.1c0.4,4,1.2,4.3,0.6,6.8c-0.6,2.6-0.3,3.6-1.5,5.6
	c-1.2,2.1-2.1,3.6-2.1,3.6s0.9,3,5.2,2.8c4.3-0.2,7.1,0.2,7.1,0.2s0.5-1,2.3,0.9c1.9,1.9,2.9,2.9,3,4.7s0.2,3.3,2.2,4.7
	c2.1,1.4,2.4,2.7,5.1,5.9s3.9,2.6,5.1,6.6s2.8,6.2,1.6,7.5c-1.2,1.3-0.8,2.1-4.1,4.7c-3.3,2.7-3.7,3.2-6.4,4.9
	c-2.7,1.6-7.2,2.9-7.9,3.9c-0.7,1-1.8,0.3-0.6,4.1c1.2,3.7,0.6,2.8,1.5,5.8s1.9,7.3,1.9,7.3l0.4,8.1c0,0-28.5,2.8-34.7,1.6
	c-6.1-1.2-13.1-3.7-12.4-4.5s3.9-3,7.1-6.4c3.1-3.4,4.9-4.3,6.5-7.1c1.6-2.9,1.6-3.9,1.4-7.2s0.1-3-0.8-7.3c-1-4.3-1.7-3.2-2.1-7.8
	c-0.5-4.5-2.5-9.5-2.5-9.5s-0.9,2.8-3.1,4.7s-1.4,3.1-1.3,4.4c0.1,1.3,1.5,0.4,2.9,2.1c1.3,1.7,3.2,2.6,2.2,4.2
	c-0.9,1.6-2.2,1.1-2.4,2.6c-0.2,1.5,0.6,2.5-0.6,3.3C70,239.4,67.7,238.7,67.7,238.7z"/>
<path class="st4" d="M105.9,231.6c1-1.3,11-8.1,10-8.3s-6.6-6.5-6.8-5.5c-0.2,1,0.9,2.7,0,4.6C108.1,224.2,105.9,231.6,105.9,231.6z
	"/>
<path class="st2" d="M56.8,256.4c1.2-0.6,1.1-1.3,5.4,1.3c4.3,2.6,4.3,4.4,11.7,5.8s9.8,2.8,18.8,0.9s9.5-2.2,14.6-3.2
	c5-1,2.1,1.2,6.3-0.3c4.2-1.5,3.1-0.4,6.4-1.8s4.5-4.3,5.6-1.3c1.2,3,3.5,3.4,3.7,9.5s0.6,8.3-0.2,12.7s-0.6,2.9-0.8,9.8
	c-0.2,7,1.8,6.6-2.1,10.6s-5.7,2.8-5.7,7.6c0,4.8-1.4,1.8,0.1,8.1c1.6,6.3,2.4,2.7,1.6,8c-0.8,5.4,0.2,4.8-2.9,8.8s-3.2,2.7-4.8,5.3
	c-1.7,2.6-4,1.5-2.3,5.4c1.7,4,2.4,2.9,1.8,6.5s-0.6,4.3-3.8,5.2c-3.3,0.9-8.3,1.1-8.3,1.1s-6.3,0.8-8,2.9s-3.1-2.1-2.7-3.9
	s-0.9-2.5-2.1-2.2c-1.3,0.3-2.2,0.9-3.7,1.7s-3,0.1-5.8,1.5c-2.7,1.4-5.2,3.3-5.3,0.5c-0.1-2.8-0.2-4.3,0.5-5.3s-6,1.3-7.5,2.9
	c-1.4,1.6-5.3,0.2-3.7-2.4c1.7-2.6,3.3-5.7,5.3-6.6s4.7-2,4.9-2.8c0,0,2.8-4.7,4.6-4.3c1.8,0.4,4.3,0.8,5.3-0.5s2.5-1.6,2.3-4.7
	c-0.1-3-0.1-8.4-0.9-9.3c-0.8-1-1.7-4.7-3.8-5.9c-2.1-1.2-3.7-2.4-6.9-6.5c-3.2-4.2-2.7-2.9-3.2-4.2c-0.6-1.2-1.7-4-1.7-4
	s-1.7,1.1-5,1.2c-3.3,0.2-6.6-0.2-6.6-0.2s-2,1.1-4.9,3.5s-4.7,3.3-5.6,5.6c-0.9,2.3-1.1,3.9-2,5.2c-1,1.3-3.7,2.5-3.9,3.7
	c-0.2,1.3,1,0.5,2.9,2.4s1.4,3.7,1.4,3.7s3.3,1.1,3.9,2.9c0.6,1.7,0.5,5.3,0.5,5.3s-2.5-4.2-5-3.8s-3.2,1.2-5.3,0.5
	s-4.2-2.6-5.2-2.8s-0.4,2-4.6,0c-4.2-2.1-8-2.9-10.2-6.4s-3.7-3.9-4.7-8.7c-1-4.8-1-4.8-1.4-7.8s-1.9-3.2-2.8-6.5
	c-0.9-3.3-1-4.3-0.5-6.1c0.4-1.8-0.8-5.5-3.3-5.2s3.6-4.7,6.3-1.6c2.7,3.2,3.3,4.7,3.6,6.4c0.3,1.8,2.4,3.2,2.4,3.2s1.9-2.6,1.3-4.9
	s-0.5-4.5-0.5-4.5s1.3-0.1,3.4,1.4c2.1,1.4,2.7,5.4,4.2,4.1c3.9-3.2,4-1.4,4.9-4.8c0.9-3.3,0.3-4.8,1-6.9s1.1-4.1,2.6-5.2
	s2.5-1.6,3.4-2.4c1-0.8,1.2-1.8,1.1-4.4c-0.1-2.5-0.7-3.3,0.5-5.9c1.1-2.6,2.1-3.4,4.1-5.5c1.9-2.1,4.2-2.5,5.9-3.1
	C53.3,255.6,56.8,256.4,56.8,256.4z"/>
<path class="st5" d="M72.3,283.5c1.1,3.2-0.3,6.7-1.5,9.9c-1.2,3.2-2.2,6.9-0.5,9.9"/>
<path class="st5" d="M67,295c0.2,2.8-1.5,5.9,0,8.3"/>
<path class="st5" d="M63.8,297.7c0,1.9,0.1,3.7,0.4,5.6"/>
<path class="st5" d="M60.6,299.1c-0.3,1.3,0.5,2.8,1.7,3.4"/>
<path class="st5" d="M69.8,290.8c0.2,1.5,0,3.1-0.5,4.6"/>
<path class="st5" d="M41.2,321.9c-1.4-1.1-2-3.2-1.4-4.9c0.8-2.2,3.2-3.4,4.7-5.3c1.6-2.2,1.7-5.4,0.2-7.7c-3.2,0.5-6.6,1.1-8.9,3.4
	c-0.6,0.7-1.4,1.6-2.3,1.4c-0.8-0.2-1.2-1.2-1.4-2c-0.5-1.7-0.9-3.5-1.4-5.2c-0.3-1-0.5-2.1-1.1-3c-0.5-0.8-1.2-1.6-2.1-2.1"/>
<path class="st5" d="M23,297.6c-1.1,1-1.8,2.5-1.8,4c0,0.3,0,0.6-0.2,0.7c-0.2,0.3-0.7,0.2-1,0c-1.4-0.6-2.5-2-2.7-3.5"/>
<path class="st5" d="M44.2,315.9c2.3-2.9,4.2-6,5.7-9.4c0.7-1.6,1.4-3.4,2.7-4.6c1.7-1.7,4.3-2.3,5.9-4.2c1.4-1.6,1.7-4,0.8-5.9"/>
<path class="st5" d="M54.3,294.6c-1.3,2.4-3.3,4.3-5.6,5.5"/>
<path class="st5" d="M53.8,304.8c1.4-0.9,2.5-2.3,2.8-4"/>
<path class="st5" d="M54.5,298.1c1.2-1.4,2-3.1,2.4-4.9"/>
<path class="st5" d="M46.3,296.5c2.5-1.9,4.7-4.3,6.4-7"/>
<path class="st5" d="M55.5,290.1c1.1-1.6,3.1-2.6,5.1-2.6"/>
<path class="st5" d="M57.7,291.7c0.4-1.2,2-1.6,3.2-1.9s2.8-1,2.7-2.3"/>
<path class="st5" d="M60.7,283.2c-0.5,1.2-2.3,2.3-4.5,2.9"/>
<path class="st5" d="M53.1,286c-0.8,0.9-1.8,1.6-2.9,1.9"/>
<path class="st5" d="M44.6,293.5c-1.1,1.2-2,2.8-2.4,4.4"/>
<path class="st5" d="M35.4,281c0.1,1.5,1.1,3,2.4,3.8c1.7,1,3.8,0.9,5.7,0.4"/>
<path class="st5" d="M46.1,269.6c0,1.3-0.1,2.7,0.3,3.8c1.1-0.6,2.1-0.7,3.3-0.7"/>
<path class="st5" d="M42.1,269.5c0.2,0.6,0.2,1.3,0.2,2c0.1,1.1,0.7,2.8,2.1,1.9c0.9-0.6,0-3.8,0.1-4.8"/>
<path class="st5" d="M38.8,278.3c0.1-0.3-0.5-0.1-0.6,0.2c-0.5,1.3-0.6,2.7-0.4,4.1c0.1,1,0.9,2.3,1.8,2"/>
<path class="st5" d="M40.7,279.2c-0.4,1.6-0.3,3.3,0.4,4.8c0.3,0,0.5,0,0.8,0"/>
<path class="st5" d="M43,280.6c0,0.8,0.2,1.5,0.8,2.1"/>
<path class="st5" d="M83.1,291.8c-0.8,7.4-0.3,14.9,1.5,22.2c0.5,2.2,1.2,4.4,1.1,6.6"/>
<path class="st5" d="M75.1,302.7c-0.1,4,1.7,8.1,4.8,10.7c0.2,0.2,0.8,0.1,0.6-0.1"/>
<path class="st5" d="M78.5,301.6c-0.3,4.6,1.2,9.3,4.2,12.8"/>
<path class="st5" d="M80.1,301.3c0.6,0.7,1.3,1.5,1.9,2.2"/>
<path class="st5" d="M81,297.9c0.3,0.1,0.5,0.2,0.8,0.2"/>
<path class="st5" d="M125,268.8c-0.4,5.8-3.6,11.3-8.4,14.6"/>
<path class="st5" d="M126.4,272.6c-1.1,4.2-3.1,8.3-5.8,11.7"/>
<path class="st5" d="M122.1,265.3c-0.6,3.5-2.2,6.7-4.6,9.4"/>
<path class="st5" d="M125.3,285.9c-1.2,2-2.5,4-3.9,5.8"/>
<path class="st5" d="M124.8,291.6c-0.6,2.5-2.1,4.7-4.2,6.2"/>
<path class="st5" d="M123.4,299c-0.4,1.3-1.6,2.3-2.9,2.5"/>
<path class="st5" d="M121.6,286.7c-0.4,0.4-0.8,0.7-1.2,1.1"/>
<path class="st5" d="M117,303.4c-1.6,4.1-2.3,8.5-2.2,12.9c0.1,3.5,0.7,7-0.6,10.3"/>
<path class="st5" d="M118,311.2c-0.4,2.3-0.5,4.6-0.3,7s0.6,4.8,0.5,7.2s-1,4.9-2.9,6.4"/>
<path class="st5" d="M113,332.9c-0.6,2.5-1.9,4.9-3.8,6.6"/>
<path class="st5" d="M101.5,345.9c-1,0.4-1.4,1.5-1.7,2.5c-0.6,2.3-0.9,4.7-0.7,7c0.3,0,0.7,0,1,0"/>
<path class="st5" d="M103.2,346.5c-0.3,2-0.5,3.9-0.8,5.9c-0.1,0.5-0.1,1.1,0,1.6c0.2,0.5,0.7,1,1.3,0.8c0.1-0.4,0.2-0.7,0.4-1"/>
<path class="st5" d="M105.9,351.5c0-1.6,0-3.2,0-4.8c0.2,1.4,1.4,2.3,1.2,3.8"/>
<path class="st5" d="M91.3,304.8c-0.1,2.3,0.4,4.6,1.6,6.5"/>
<path class="st5" d="M96.7,303.5c0.1,1.1,0.6,2.3,1.2,3.2"/>
<path class="st5" d="M101.6,309.9c0.4,2,0,4.2-1.2,5.9"/>
<path class="st5" d="M94.6,326c-0.4,0.9-0.9,1.8-1.5,2.6"/>
<path class="st5" d="M75,350.8c1.8-3.1,4.6-5.5,7.9-6.8c1.7-0.6,3.5-1,4.9-2.1"/>
<path class="st5" d="M91.6,353.7c-0.5-0.9-0.2-2,0.2-3c0.9-2.2,2.4-4.1,4.2-5.7"/>
<path class="st5" d="M70.9,346.8c1.8,0.6,3,2.5,2.7,4.4"/>
<path class="st5" d="M105.1,276c0.2,0.1,0.2,0.5,0.1,0.8c-0.6,1.9-1.5,3.6-2.8,5.1"/>
<path class="st5" d="M110.2,276.3c-0.3,1.7-0.8,3.4-1.5,4.9"/>
<path class="st5" d="M102.4,225.2c-0.3-3.4,1.6-6.9,4.6-8.6c0.1-0.1,0.2-0.1,0.3-0.1c0.2,0,0.3,0.2,0.4,0.3c0.3,0.4,0.6,0.8,1,1.2"
	/>
<path class="st5" d="M94.8,221.7c0.4,0.5,1.1,0.3,1.7,0.1s1.4,0,1.4,0.6"/>
<path class="st5" d="M76.9,219.1c1.2,0.3,1.7,1.7,1.7,2.9"/>
<path class="st5" d="M65.8,220.8c1.1,0.8,1.9,2,2.3,3.4"/>
<path class="st5" d="M65.4,228.3c1.4-0.6,3-0.8,4.6-0.6"/>
<path class="st5" d="M78.4,194.9c0.6,1,1.3,1.9,2.1,2.8c0.7,0.8,1.6,1.6,2.5,2.1c2.5,1.3,5.7,0.7,7.9-1s3.5-4.4,4-7.2"/>
<path class="st5" d="M74.7,180c1.7-1.1,3.8-1.7,5.8-1.7c1.6,0,3.2,0.4,4.7,0.8c4.2,1.1,8.5,2.2,12.4,4.1c0,0.2-0.3,0.5-0.5,0.3"/>
<path class="st5" d="M88.9,173.9c0.5-0.9,1.8-0.6,2.7,0c1.6,1,3,2.4,4.1,4"/>
<path class="st5" d="M84.3,175.4c4.8-0.8,10,1.6,12.6,5.8"/>
<path class="st5" d="M92,171.7c1.6,0.4,2.9,1.6,3.5,3.1"/>
<path class="st5" d="M85.4,183.2c1.9-0.1,3.9,0.4,5.6,1.3"/>
<path class="st5" d="M75.8,184.1c1.2-0.9,2.8-1.4,4.3-1.2"/>
<path class="st5" d="M86.8,185.8c0.9,0.1,1.9,0,2.8-0.2"/>
<path class="st5" d="M76.5,186.5c0.8,0.1,1.7,0.1,2.5,0.2"/>
<path class="st5" d="M79.3,192.3c2.9,0.5,5.9,0.4,8.9-0.1c-0.7,1.4-1.6,3-3.1,3.3C83.9,195.8,80.1,193.2,79.3,192.3z"/>
<path class="st5" d="M79.1,197c-0.1,0.1-0.1-0.2,0-0.2s0.2,0.1,0.2,0.3c0.3,2.1,0.6,4.2,0.9,6.2"/>
<path class="st5" d="M95.2,201.3c2.1-1.2,4.8-1.3,7-0.4"/>
<path class="st5" d="M104.1,209.8c-0.4,1.3,0.1,2.7,0.9,3.8c0.9,1,2.1,1.8,3.2,2.5"/>
<path class="st5" d="M74.1,214.5c-1.2-2.5-1.4-5.4-0.6-8.1"/>
<path class="st5" d="M78.7,246.7c5.5-0.1,11-0.1,16.5-0.1"/>
<path class="st5" d="M98.7,247.1c2.7-0.3,5.3-0.8,7.8-1.6"/>
<path class="st5" d="M106.5,240.7c-1.4,1.9-3.4,3.3-5.6,4.1c0-0.1,0-0.2,0-0.3"/>
<path class="st5" d="M94.4,234.9c-2.1,0.6-3.5,2.8-3.3,4.9c1.5-0.6,2.7-1.7,3.3-3.2"/>
<path class="st5" d="M101.1,245.1c-2.1,1.1-4.7,1.4-7,0.7c-0.5-0.1-1-0.4-1.3-0.7c-0.5-0.6-0.5-1.3-0.7-2c-0.2-0.8-0.7-1.5-1.3-2.1
	c0.8-0.6,1.7-1.1,2.5-1.7c1.9-1.3,3.8-2.6,5.9-3.2c-0.3,0-0.7,0-1,0"/>
<path class="st5" d="M97.7,234.8c1.3-0.2,2.7,0,4.1-0.1s2.8-0.7,3.4-1.9"/>
<line class="st4" x1="98.2" y1="263.2" x2="97.2" y2="246.2"/>
<path class="st4" d="M97,237c-0.3-1.4,7.5-40.8,7.5-40.8"/>
<line class="st4" x1="74.2" y1="196.5" x2="70.4" y2="227.2"/>
<line class="st4" x1="67.7" y1="238.7" x2="63.8" y2="258.7"/>
<line class="st4" x1="111.7" y1="238.2" x2="117.8" y2="252.5"/>
<line class="st6" x1="51.9" y1="225" x2="58.3" y2="225"/>
<text transform="matrix(1 0 0 1 12.6177 229.4367)" class="st7 st8">Actor</text>
<g>
	<g>
		<path class="st9" d="M209,336.8c-0.1,0.4-3.5,3.8-5.6,5s-6.6,4.1-7.2,9.1c-0.6,5-0.4,6.7,3.4,7.6c3.8,0.9,12.7,3.5,21.5,1.2
			s11.1-4.4,13.5-8.6c2.3-4.2,1.6-10.7,1-11.1C235.1,339.4,209,336.8,209,336.8z"/>
		<path class="st9" d="M255.3,340.4c-0.1,1.8,0,6.3,0.6,9.2c0.6,2.9,0,8.1,4,9.7c4,1.6,10.5,2.8,18.6,1.6s11.7-3.2,12.5-5.1
			c0.7-1.9,0.9-3.7-1-8.2s-6.7-10-6.7-10L255.3,340.4z"/>
		<path class="st9" d="M301.9,267.6c-1.9-4.6-7.9-10.5-12.8-14.5c-0.2-2-0.3-3.4-0.4-3.9c-0.1-2.8-1.8-13.8-1.8-13.8l-89.2,7
			l-0.7,3.4c0,0-13.3,1.8-22.1,6.7c-8.8,5-10.7,10.3-11.4,15.7c-0.7,5.4,6.4,6.6,11.7,6.2s18.8-2.5,18.8-2.5s-0.3,7.2-0.9,12.5
			c-0.6,5.3-2.9,25.8-0.4,35s7.8,14.5,13.5,17.9s14.8,4.4,27.1,4.5s20.2,1,30.9,0.4c10.7-0.6,17.1-1.8,20.9-4.2
			c3.8-2.5,8.9-9.5,10.7-19.3c1.8-9.8-0.7-18.6-1.3-22c-0.6-3.4-2.2-15.5-2.2-15.5s0-0.1,0-0.4c2.6,0.5,5.1,0.6,7.2,0.2
			C304.2,280.2,304.6,274.5,301.9,267.6z"/>
		<path class="st10" d="M203.4,248.6c1.2,1.2,3.2,4.8,1.8,11.4c-1.5,6.6-5.1,12.2-11.3,11.9"/>
		<path class="st10" d="M274.3,247.1c-3.2,1.3-6.9,8.9-6.2,16.7c0.7,7.8,8.1,11.1,14.1,13.8c6,2.6,12.3,4.1,17.1,3.4
			c4.8-0.7,5.3-6.4,2.5-13.3S287,251,283,249.1S277.1,245.9,274.3,247.1z"/>
		<path class="st9" d="M215.4,164.2c0,0-8.8-15.1-16.8-24.2c-8.1-9.1-19.8-17.7-22.6-19s-3.2,1.6-3.2,2.9s0.7,16.7,3.5,27.4
			s11.1,29.6,16.4,35.5c0,0-5.4,11.6-6.4,23.4s1.8,23.9,7.2,29.2s18.8,8.2,26.1,9.4s17.4,2.9,23.6,1.9c6.2-1,21.2-3.2,27.5-3.8
			c6.3-0.6,12.5-3.7,16.4-9.2c4-5.6,6.7-14.7,7.3-24c0.6-9.4-2.6-22.3-6-26.2c0,0,7.6-11.9,11.6-19.5s8.1-15.4,10.3-26.5
			c2.2-11.1,3.2-16.8,3.2-19.3s-1.9-3.4-3.4-2.3c-1.5,1-17,10.5-21.4,14.5s-14.2,15.2-17.6,20.1c-3.4,4.8-5.9,9.4-5.9,9.4
			s-8.5-3.4-22.9-4.1S215.4,164.2,215.4,164.2z"/>
		<path class="st10" d="M313.4,122c0-2.5-1.9-3.4-3.4-2.3c-1.3,0.9-12.9,8-18.9,12.5c3.1,1,7.1,3.4,10.3,8.7c2.7,4.4,4.2,9.7,5,13.4
			c1.5-3.9,2.9-8.1,3.8-13C312.4,130.2,313.4,124.5,313.4,122z"/>
		<path class="st10" d="M176,121c-2.8-1.3-3.2,1.6-3.2,2.9s0.7,16.7,3.5,27.4c0.1,0.5,0.3,1,0.4,1.6c1.1-5.6,3.2-11.5,7.8-15.2
			c3-2.4,6.4-3.1,8.7-3.2C186,127.6,178.2,122,176,121z"/>
		<path class="st10" d="M287.9,187.2c-2.2-1.5-7.6-7-10.4-10.8s-8.2-9.2-8.2-9.2"/>
		<path class="st10" d="M212.8,206.4c2-8.5-4.2-10.8-7.8-9.2c-3.5,1.6-6.9,8.1-5.3,13.6C201.4,216.3,210.7,214.9,212.8,206.4z"/>
		<path class="st10" d="M267,198.9c-4.8-4.2-11.3-3.4-13.6,1s-1.3,12.4,7.9,13.5C269.8,214.4,271.5,202.9,267,198.9z"/>
		<path class="st10" d="M230.4,216.9c-1.9-1-2.6-2.5,0.1-2.9c2.8-0.4,4.5,0.7,3.7,1.5S232.1,217.8,230.4,216.9z"/>
		<path class="st10" d="M215.1,213.7c2.9-2.2,10.7-5,18.9-4.5s17.4,5.3,17.4,5.3"/>
		<path class="st10" d="M222,225c0,0,6.9-1.8,8.1-2.2c1.2-0.4,2.6-0.7,5.4,0c2.8,0.7,7.3,2.1,7.8,2.3c0.4,0.3-0.9,5.9-2.6,8.8
			c-1.8,2.9-6.4,6.6-7.9,6.7c-1.5,0.1-6.3-5.1-8.1-7.8S220.1,226.6,222,225z"/>
		<path class="st10" d="M197.4,221.5c-1.9-5.1-6.3-5.9-8.4-3.8c-2.1,2.1-1,9.2,0.6,13.6s4.8,7.8,7.9,9.4c3.1,1.6,5.7,2.8,5.1-1.5
			C202.1,234.9,197.4,221.5,197.4,221.5z"/>
		<path class="st10" d="M266.7,233.8c0.3-6,4.1-14.7,8.9-17s10.4,0,11.3,5.9s-2.5,13.3-6.7,16.3c-4.2,2.9-10.7,2.8-12,1.9
			C266.8,239.9,266.6,236.5,266.7,233.8z"/>
		<path class="st10" d="M277.1,244.8c0,0,9.5,2.6,11.9,8.3"/>
		<path class="st10" d="M280.5,243.4c0,0,6.1,1.1,8.2,5.7"/>
		<path class="st10" d="M265.8,254.8c-0.3,5,0.7,8.7,4,13.7"/>
		<path class="st10" d="M272.4,254.8c-2,3-2.7,8-2,11"/>
		<path class="st10" d="M273.1,260.5c-0.7,2.7-1.7,6.7-0.3,9.4"/>
		<path class="st10" d="M274.8,264.8c-0.7,1.7-1.7,6,0.3,7.4"/>
		<path class="st10" d="M201.2,254.1c0.7,1.7,1,6.4-1.3,11c-2.3,4.7-3.7,4-3.7,4"/>
		<path class="st10" d="M198.6,258.8c0,0-1,6.4-5.3,10.4"/>
		<path class="st10" d="M193.9,262.1c0,0-0.7,4-3.7,7"/>
		<path class="st10" d="M273.8,277.9c2.7,3.3,6.4,4.3,10.7,5.3"/>
		<path class="st10" d="M278.5,286.6c2.3,1.3,5.3,1.7,7.7,1.3"/>
		<path class="st10" d="M281.1,293.6c1.3,1,3,1.7,5.7,1"/>
		<path class="st10" d="M282.5,298.6c2,1.7,4,2.3,5.7,2"/>
		<path class="st10" d="M289.8,306.9c0,0,2.7,18.1-10.7,28.1"/>
		<path class="st10" d="M285.8,318c0,0-2.3,11-11,17"/>
		<path class="st10" d="M277.1,325.7c0,0-1,4.7-6.4,8.4"/>
		<path class="st10" d="M208.9,261.5c0,0-0.3,8-11,13.7"/>
		<path class="st10" d="M208.6,271.5c0,0-3.7,5.3-10,7"/>
		<path class="st10" d="M220.6,210c0,0,12.4-5.7,25.4-0.7"/>
		<path class="st10" d="M270.4,172.9c0,0,2.7,2.7,5,5.3c2.3,2.7,10,9,10,9"/>
		<path class="st10" d="M277.1,169.9c0,0,3.7,6.4,5.3,8.7c1.7,2.3,5.3,4.7,5.3,4.7"/>
		<line class="st10" x1="283.5" y1="174.6" x2="288.2" y2="179.2"/>
		<line class="st10" x1="287.1" y1="173.9" x2="290.8" y2="175.9"/>
		<line class="st10" x1="289.8" y1="171.2" x2="293.8" y2="170.5"/>
		<path class="st10" d="M181.5,151.8c-0.3,1.3,0.3,7.4,1.3,10c1,2.7,6.7,12.7,6.7,12.7"/>
		<line class="st10" x1="192.2" y1="172.6" x2="190.9" y2="177.6"/>
		<path class="st10" d="M201.2,168.5c-3.7,2.3-8.4,11.7-8.4,11.7"/>
		<path class="st10" d="M205.6,173.2c0,0-8.7,8-12.9,13.5c0,0,6.9-13,17.1-19.5"/>
		<path class="st10" d="M208.6,341c0.7,1,8.4,3,17,3s6.7-1,6.7-1"/>
		<path class="st10" d="M210.9,344.4c0,0,11.4,2.7,20.7,0.7"/>
		<path class="st10" d="M214.6,349.1c0,0,9.7,1.7,16.7-1"/>
		<path class="st10" d="M215.3,353.1c1,0,7,1.3,14-1.3"/>
		<path class="st10" d="M258.7,345.1c0,0,12,0.3,21.1-2.7"/>
		<path class="st10" d="M258.4,347.1c1,0,6.4,1.3,12.7,0"/>
		<path class="st10" d="M259.4,348.7c0,0,4.3,2,8,1.3"/>
		<path class="st10" d="M260.1,351.7c0,0,3.7,1.7,6.4,1.7"/>
	</g>
</g>
<rect x="172.1" y="6.9" class="st0" width="137.5" height="147.6"/>
<text transform="matrix(1 0 0 1 183.9472 18.1756)" class="st11 st7 st8"> Nowadays, most </text>
<text transform="matrix(1 0 0 1 175.3486 36.1756)" class="st11 st7 st8">costumes are made </text>
<text transform="matrix(1 0 0 1 192.3661 54.1756)" class="st11 st7 st8">with pp cotton, </text>
<text transform="matrix(1 0 0 1 185.0126 72.1756)" class="st11 st7 st8">polyfoam, plastic </text>
<text transform="matrix(1 0 0 1 175.312 90.1756)" class="st11 st7 st8">and other materials. </text>
<text transform="matrix(1 0 0 1 174.1367 108.1756)" class="st11 st7 st8">Reducing the weight </text>
<text transform="matrix(1 0 0 1 199.6757 126.1756)" class="st11 st7 st8">to about 8kg</text>
<g id="animacion">
	<g>
		<path class="st5" d="M47.5,55.2c0.5-2.4,2.3-4.5,4.7-5.2"/>
		<path class="st5" d="M51.7,46.7c1.3-0.7,2.9-1.1,4.4-1"/>
		<path class="st5" d="M63,49.2c0.9,0.4,1.7,1,2.4,1.8"/>
		<path class="st5" d="M68.6,54.9c1.2,0.7,2.1,1.8,2.7,3"/>
		<path class="st5" d="M118.7,163.2c-0.9,0.6-1.7,1.3-2.6,1.9"/>
		<path class="st5" d="M111.8,160.2c-0.5,2.1-2.1,4-4.1,4.8"/>
		<path class="st5" d="M105.9,168.9c-0.6,0.3-1.2,0.5-1.8,0.8"/>
		<path class="st5" d="M103.2,163.4c0.4-1.2,1.3-2.3,2.4-2.9"/>
		<path class="st5" d="M111,167.6c0.9,0.2,1.9-0.6,2-1.5"/>
		<path class="st5" d="M114.9,158.9c0.4-0.2,0.8-0.4,1.2-0.6c-0.4,0.1-0.8,0.2-1.2,0.3"/>
		<g>
			<path class="st2" d="M128.1,136.6c0.8-2.1,1.4-4.9,1.2-7.6c-0.3-2.7-0.8-5-1.9-8.3c-1.1-3.3,0.8-5-4.4-9.1
				c-5.2-4.1-5.2-4.1-8.7-7.3c-3.5-3.2-3.2-2.7-7.4-7.3c-4.2-4.6-6.2-4.7-9.6-8.8c-3.4-4.1-6.1-9-7.6-13s-8.6-12.2-10.9-14.8
				s-4.3-5.5-5.2-6.6c-1-1-0.7-1.4-1.1-3.3c-0.4-1.8-1.9-1.9-3.5-1.9s-13.9-5.4-17.6-4.7c-3.7,0.8-6,3.1-8.2,5.4
				c-2.1,2.4-4.4,2.7-5.3,5.9c-0.9,3.2,0.1,3.8,1.9,5.4c1.8,1.6,1.7,1.8,0.6,3.6c-1.2,1.8-1.6,0-2.3,3.2s-0.3,3.3-0.9,4.5
				c-0.6,1.2-2-0.3-1.5,2.7c0.4,3,0.1,4,2.4,4.6c2.4,0.6,3.2,0.9,4.4,0.4s-0.7,0.3,3.3-1.3c4-1.6,7.7-5.1,5.5-1.2s-2.7,4.7-3.8,5.9
				c-1.1,1.2-2.3,0.8-3.1,2.7c-0.7,1.9-2.4,2.3,0.3,2.7c2.6,0.4,3.1,0,4.5,0s0.6,0.3,2.5-0.3c1.9-0.6,1.6-0.2,3.1-1.1
				s2.1-3.3,2.9-1.3c0.8,1.9,0.6,0.5,1.8,4.1c1.2,3.5,2.7,4.6,2.7,6.7c0,2-1.1,4.8-2.1,7s-1.8,4.6-2.7,7.6s-0.8,4.1-3.4,4.8
				c-2.6,0.7-7.3,2.9-9.2,4.8c-1.9,1.9-4.1,3.6-6.1,5.1s-6.8,3.9-8.2,3.9s-3.1,1.5-6.5,0.4c-3.4-1.2-6.2-1.8-8.5-1.3s-7,2.3-8.1,3.5
				c-1.1,1.3-2.6,2.2-3.2,4.3c-0.5,2.1-0.5,3.5-1,5c-0.4,1.5,3.5-2.6,3.4-1.7s-2.2,3-2.1,5c0.1,2,3.6-3.2,3.2-1.8
				c-0.2,0.8-0.9,2-1.4,3.2c0.8-0.6,2.2-1.1,4.7-1.3c8.6-0.7,8.3-0.3,11.8,0.2s2.5,0.8,6.6,0.6c4.1-0.3,4.7-0.4,7.7-1.1
				s4.9,0.1,7.3-0.9c2.4-1,4.5,0,5.7-1.7c1.2-1.8,2-2.2,2.8-0.1c0.8,2.1-0.5,4.8-0.6,6.8s1.2,3.5,0.6,6.3c-0.6,2.8-0.5,5-0.5,5H53
				c-0.4,0.9-0.6,1.8-0.6,2.7c0,8.6,16.4,15.5,36.5,15.5c17.1,0,31.5-5,35.4-11.7l1.4,0.1c0,0-0.3-1.2-0.4-2.8
				c0.1-0.4,0.1-0.7,0.1-1.1c0-0.6-0.1-1.1-0.2-1.7c0-1,0.1-2.1,0.3-3.1c0.8-4.1,1.3-4,2.1-8.1c0.8-4.1,0.7-6.1,0.6-8.4
				C128.2,139.2,127.4,138.6,128.1,136.6z"/>
			<path class="st5" d="M55.2,58.7c-1.6,0.8-2.8,2.3-3.4,4c-0.2,0.7-0.3,1.5,0.2,2c0.7,0.7,1.8,0.3,2.6-0.2
				C55.5,64,54.3,59.4,55.2,58.7z"/>
			<path class="st5" d="M125.4,136.8c-2.2,0-3.4,2.6-4.4,4.6c-1.9,3.9-5.2,7-9.2,8.5c-1.3,0.5-2.8,1-3.5,2.1c-0.6,0.9-0.6,2.1-1,3
				c-0.5,1-1.5,1.7-2.5,2.3c-4.2,2.5-8.9,3.9-13.7,4.3"/>
			<path class="st5" d="M104.5,125.2c-2.1,3.6-4.5,7-7.6,9.7c-3.1,2.7-7.1,4.5-11.3,4.5c-0.8,0-1.5-0.1-2.2,0.1
				c-3.2,0.8-3.8,5.7-7,6.5c-1.2,0.3-2.4,0-3.6-0.1c-4.2-0.1-7.6,3.3-10.3,6.5c2.5-0.1,4.9-0.5,7.3-1.1c-3.2,2-4.7,6.3-3.5,9.8
				c1.7-2.3,4.1-4.1,6.8-5.1c-1.9,3.1-3.9,7-2.1,10.1c1-3.3,3.9-6,7.2-6.7c-1.4,2.8-1.4,6.3,0.2,9.1c0.4-3.8,4.8-6.7,8.5-5.5"/>
			<path class="st5" d="M117.6,136.1c-1.2,2.8-3.7,5.1-6.6,5.9"/>
			<path class="st5" d="M107.1,142.2c-1,1.5-2.5,2.7-4.2,3.3"/>
			<path class="st5" d="M95.2,155.4c2.4-0.3,4.6-1.6,6.2-3.4"/>
			<path class="st5" d="M106.8,148c0.3-0.3,0.6-0.6,0.9-0.9C107.4,147.4,107.1,147.6,106.8,148"/>
			<path class="st5" d="M121.2,149.8c-0.9,2.9-3.2,5.3-6,6.2"/>
			<path class="st5" d="M118.5,149.5c-1.4,1.7-3.5,2.7-5.7,3"/>
			<path class="st5" d="M119.6,156.9c-0.9,0.7-1.6,1.7-2.1,2.7"/>
			<path class="st5" d="M120.6,161.8c1.3-1,1.9-2.7,1.7-4.3"/>
			<path class="st5" d="M106.4,114.6c0.4,1.2-0.1,2.6-1.1,3.3"/>
			<path class="st5" d="M70.7,81.2c1.7,1.1,2.9,3,3.6,4.9s1.1,4,1.6,6c0.6,2.1,1.3,4.2,2.1,6.2c0.5,1.3,1.1,2.8,2.5,3.3"/>
			<path class="st5" d="M57.9,84.5c3.2-1.1,5.8-3.7,6.9-6.9"/>
			<path class="st5" d="M63.3,89.4c3.5,0.5,7.2-0.9,9.4-3.7"/>
			<path class="st5" d="M63.4,97.1c1.8,1.1,3.8,1.7,5.9,1.8c1.2,0,2.7-0.4,2.8-1.6"/>
			<path class="st5" d="M53.7,139c0-2.9,0-5.8,0.8-8.6c0.7-2.8,2.2-5.5,4.6-7.2"/>
			<path class="st5" d="M68.2,124.2c1.2,1.4,2.8,2.6,4.6,3.2"/>
			<path class="st5" d="M67.1,129.8c0.7,1.4,1.9,2.6,3.3,3.3"/>
			<path class="st5" d="M65.7,136.2c0.1,0.6,0.5,1.2,1.1,1.5C66.4,137.2,66,136.8,65.7,136.2"/>
		</g>
	</g>
	<text transform="matrix(1 0 0 1 102.5439 12.5277)" class="st7 st8">Latex</text>
	<text transform="matrix(1 0 0 1 91.5321 30.5277)" class="st7 st8">costume</text>
	<text transform="matrix(1 0 0 1 90.0966 48.5277)" class="st12 st8">(Weighed</text>
	<text transform="matrix(1 0 0 1 104.0526 66.5277)" class="st12 st8">up to</text>
	<text transform="matrix(1 0 0 1 98.1601 84.5277)" class="st12 st8">100kg)</text>
	<path class="st6" d="M65.4,44.8c0,0-0.3-35.3,31.1-36.7"/>
</g>
</svg>