<?xml version="1.0" encoding="utf-8"?>
<!-- Generator: Adobe Illustrator 23.0.2, SVG Export Plug-In . SVG Version: 6.00 Build 0)  -->
<svg version="1.1" id="Layer_1" xmlns="http://www.w3.org/2000/svg" xmlns:xlink="http://www.w3.org/1999/xlink" x="0px" y="0px"
	 viewBox="0 0 425 156.73759" style="enable-background:new 0 0 425 156.73759;" xml:space="preserve">
<style type="text/css">
	.st0{fill:#BD625B;}
</style>
<g>
	<path class="st0" d="M252.49535,98.12284c-3.46915,1.23772-6.927,2.5081-10.40974,3.70644
		c-6.74161,2.31982-13.10403,5.37103-18.99538,9.42107c-3.18718,2.19095-6.53,4.15404-9.77261,6.26621
		c-4.96353,3.23329-9.90305,6.50373-14.84584,9.76881c-0.33565,0.22163-0.67715,0.48508-0.90709,0.80691
		c-0.88307,1.23599-1.42584,2.38338-3.58517,1.57423c-1.45453-0.54501-3.45804,0.37486-5.36188,0.66144
		c0.00829-0.93161,0.01537-1.71364,0.0266-2.96812c-1.59962,1.44778-2.90024,2.62488-4.2525,3.84879
		c-1.11006-1.05409-0.73692-1.73247-0.00673-2.72266c1.3811-1.87274,2.49583-3.94207,3.7213-5.92986
		c-0.23131-0.19123-0.46278-0.38263-0.69409-0.57404c-2.14655,1.80399-4.29309,3.60815-6.43982,5.41215
		c-0.17706-0.14891-0.35413-0.29781-0.53119-0.44672c0.47937-0.62257,0.84128-1.43397,1.46609-1.82265
		c0.8912-0.55434,1.55887-0.83195,1.10178-2.17868c-0.17654-0.52048,0.70152-1.54832,1.29422-2.15398
		c2.25124-2.30098,2.33087-2.38649,2.17696-5.58714c-1.37178,1.5098-2.53127,2.78588-3.98164,4.38206
		c0.09641-1.94357,0.62103-2.96018,1.93529-3.84966c1.82558-1.23566,3.41986-2.82164,5.06061-4.31521
		c0.36484-0.33219,0.51099-0.9045,0.75766-1.36625c-0.15028-0.15755-0.30075-0.31509-0.45122-0.47263
		c-0.64848,0.51409-1.29697,1.02819-2.08194,1.65025c-0.04559-0.22975-0.10866-0.54709-0.23717-1.19333
		c-1.41739,1.50323-2.71109,2.87519-4.22659,4.48242c-0.21144-0.80189-0.35085-1.33084-0.61705-2.33985
		c-2.06691,1.86048-3.96695,3.57033-5.91743,5.32595c-0.03143-0.13094-0.29315-0.64107-0.16411-0.77512
		c1.3773-1.43086,2.7966-2.8232,4.24542-4.18254c1.07103-1.00486,2.1329-2.04221,3.31932-2.89799
		c5.28276-3.81044,10.60905-7.56025,15.91756-11.3351c0.16359-0.11626,0.30403-0.26482,0.88135-0.77477
		c-4.40849-0.47885-8.41985-0.876-12.41943-1.36832c-1.5948-0.19641-3.16524-0.5958-4.74379-0.91694
		c-1.30354-0.26517-2.59172-0.63415-3.90649-0.80984c-2.33276-0.31181-2.36922-1.4407-0.97533-3.19857
		c-0.69081-0.09536-1.18021-0.07584-1.59618-0.24098c-0.62431-0.24806-1.19731-0.62551-1.79207-0.94803
		c0.57231-0.41546,1.09435-0.94942,1.72902-1.2177c0.87634-0.37036,1.82454-0.61204,2.76498-0.7815
		c1.98277-0.35724,1.46194-2.28786,2.60225-3.68347c-1.61156-0.27864-2.91182-0.50356-4.42387-0.7651
		c0.06531-0.65315,0.12939-1.29317,0.14252-1.42429c2.62386-0.96513,4.88199-1.7957,7.14014-2.62626
		c-0.00795-0.07774-0.0159-0.15565-0.02383-0.23338c-0.69168-0.00622-1.38336-0.01244-2.15813-0.01935
		c0.31406-3.30827,3.56686-0.44171,4.59834-2.45023c-0.60893-0.22872-1.18954-0.4469-1.53452-0.57629
		c1.73869-0.611,3.63528-1.27746,5.53203-1.94392c0.03456,0.08361,0.06927,0.1674,0.10382,0.251
		c-0.53914,0.34464-1.07828,0.68926-1.61742,1.03389c0.02176,0.11453,0.04353,0.22889,0.06529,0.34342
		c2.00905-0.19555,4.01601-0.52618,6.02747-0.55659c3.58139-0.05424,7.16829,0.01606,10.7457,0.18587
		c0.54813,0.02608,1.05772,0.86269,1.58513,1.32445c-0.0793,0.2256-0.15842,0.45103-0.23753,0.67664
		c2.55821,0.02298,5.11658,0.04595,7.67496,0.06892c0.03195,0.27726,0.06409,0.5547,0.09622,0.83195
		c-1.64749,0.35396-3.29514,0.70792-4.94263,1.06187c-0.03247,0.21697-0.06496,0.43394-0.09743,0.65073
		c1.77014,0.20454,3.54044,0.40907,5.31058,0.61343c0.00172,0.0919,0.00328,0.18363,0.005,0.27536
		c-2.61971,0.20902-5.2394,0.41821-7.8591,0.62741c0.00224,0.17188,0.00449,0.3436,0.00674,0.51548
		c1.57735,0.01416,3.1609-0.05373,4.73048,0.06391c1.84544,0.1382,3.96591-0.109,4.44943,2.56235
		c0.05165,0.28607,0.91245,0.42582,1.42291,0.95356c-1.57355-0.01416-3.14693-0.02833-4.82758-0.04336
		c0.54692,1.51758,0.54692,1.51758-3.7372,2.27023c3.41745,0.62189,6.28539,0.76389,9.18303-1.11681
		c9.91824-6.43739,21.02014-10.14453,32.33853-13.11301c4.01947-1.05428,10.80374,1.26243,13.84039,5.90689
		c0.48257,0.73814,1.51218,1.3932,2.38501,1.54954c2.51682,0.45035,5.13391,1.15031,7.76215-0.85268
		c-2.24084-0.26707-4.59064,0.63052-6.12057-1.61898c0.32535-0.59442,0.67963-1.24171,0.89249-1.63055
		c2.07727,0.01865,3.99454,0.08845,5.90454,0.00034c0.31296-0.01434,0.59384-0.72415,0.88956-1.11249
		c-0.1373-0.19469-0.27457-0.3892-0.41187-0.58389c1.60565,0.01451,3.2113,0.02885,5.0278,0.04527
		c-1.1702-1.43362-3.93674-1.55334-6.30573-0.53569c-0.55008-0.37071-1.06458-0.80275-1.65085-1.08675
		c-0.5163-0.25014-1.11282-0.33443-1.67395-0.49216c0.00623-0.26447,0.01245-0.52912,0.01868-0.79377
		c3.26685-0.27328,6.55054-0.86823,9.7941-0.69789c1.91806,0.10071,3.35208-0.84733,5.05554-1.0814
		c1.14755-0.15771,2.26935-0.87029,3.38547-0.83177c10.45032,0.36104,20.65771-1.48251,30.88052-3.22932
		c2.31204-0.39507,4.63013-0.76423,6.95596-1.06308c0.38626-0.04975,1.07587,0.2187,1.20267,0.51876
		c0.92471,2.18731,2.60156,1.79086,4.33524,1.42723c0.58771-0.12334,1.21304-0.06858,1.82111-0.09518
		c0.14166,0.25117,0.28329,0.50234,0.42496,0.75334c-0.62585,0.38126-1.25171,0.76234-1.87759,1.14341
		c0.04062,0.12836,0.08139,0.25653,0.12213,0.38471c0.98587-0.19728,1.97174-0.39473,2.95761-0.59218
		c0.09482,0.13786,0.18967,0.27553,0.28433,0.41321c-0.7359,0.64349-1.47162,1.28713-2.10577,1.84165
		c1.3728,0.26724,2.91629,0.26845,4.1409,0.89379c1.12442,0.57404,3.56464,0.63139,2.12909,3.04742
		c0.74731,0.37642,1.29422,0.65178,2.37753,1.19748c-1.24811,1.34811-2.33224,2.51899-3.77106,4.07319
		c1.6734-0.20039,3.10977-0.42271,4.55444-0.5191c0.52982-0.03524,1.07932,0.22751,1.62003,0.35431
		c-0.38297,0.33633-0.71448,0.84628-1.15793,0.97723c-1.54538,0.45639-3.12946,0.78133-5.25165,1.28834
		c1.14029,0.71483,1.69843,1.06464,2.56891,1.61034c-1.23343,0.46313-2.07919,0.78047-3.31396,1.24395
		c1.02765,0.48403,1.65024,0.77718,2.67444,1.25949c-1.77219,0.38281-3.13446,0.67717-4.49692,0.97153
		c0.02209,0.19797,0.04404,0.39594,0.06598,0.5939c1.40445,0.09778,2.80869,0.19555,4.21295,0.29333
		c0.06961,0.17447,0.13922,0.34877,0.20883,0.52325c-5.73743,0.86166-8.97589,5.01881-12.3396,8.96641
		c-1.29666,1.52172-2.54907,3.13431-3.51419,4.87577c-4.71011,8.49843-9.29324,17.06718-13.99609,25.56959
		c-0.45572,0.82382-1.35434,1.47025-2.17282,2.00818c-0.97705,0.64209-2.08917,1.07845-3.604,1.83388
		c0.19797-1.10333,0.39197-2.18456,0.60669-3.38187c-0.58182,0.53275-1.104,1.01091-1.80536,1.65302
		c-0.43085-0.98137-0.76218-1.73576-1.27072-2.89402c-1.09454,1.64368-1.98883,2.98644-2.8999,4.35476
		c-1.31857-2.48788-3.74274-2.26108-6.09537-2.57443c0.1705-0.88585,0.35965-1.86964,0.57233-2.9747
		c-0.87964,0.64539-1.62833,1.19489-2.79868,2.05362c-0.25757-3.12672,2.18454-6.72002-2.96951-7.67599
		c1.4248-3.64426,2.76343-7.05341,4.08994-10.46723c0.7048-1.81349,2.20355-3.78228,1.90781-5.42181
		c-0.57248-3.17301,1.83908-4.48122,2.9873-6.5388c1.1994-2.14948,2.70538-4.12778,4.30795-6.52619
		c-1.6485,0.24064-3.30981-0.54363-3.44144,2.13135c-0.03128,0.63778-1.57666,1.20094-2.42572,1.79846
		c-0.15735-0.12887-0.31491-0.25756-0.47229-0.38626c0.27933-0.5312,0.46677-1.14773,0.86151-1.57147
		c0.46918-0.5039,1.11646-0.84214,1.62433-1.64714c-8.81302,1.04201-17.34622-0.18967-25.86731-1.5637
		c-0.01529-0.20868-0.03055-0.41718-0.04584-0.62586c0.27109-0.13249,0.56213-0.40941,0.81024-0.37521
		c2.22488,0.30698,4.44165,0.67302,6.66211,1.01299c1.57654,0.2415,1.57742,0.23563,2.52966-1.69775
		c-4.04785-0.59235-8.00037-1.1707-11.95285-1.74905c-0.01379-0.1458-0.02756-0.29142-0.04132-0.43723
		c1.72986-0.15996,3.45969-0.31975,5.18954-0.47971c-0.00659-0.08551-0.01315-0.17102-0.01974-0.25653
		c-1.28018-0.1401-2.56036-0.28002-4.34778-0.4754c0.76486-0.79066,1.09973-1.10022,1.39169-1.44606
		c0.7294-0.86373,0.71066-1.49391-0.57721-1.66579c-2.31583-0.30887-4.64288-0.91642-6.9455-0.83575
		c-2.37613,0.08326-4.72873,0.83782-7.09155,1.29853c0.02557,0.19814,0.0513,0.39629,0.07703,0.59442
		c2.31067,0.46452,4.62122,0.92903,6.93185,1.39355c-0.01697,0.21991-0.03394,0.43999-0.05087,0.66006
		c-0.66318,0.26966-1.32639,0.53914-1.98959,0.8088c0.01532,0.14891,0.03067,0.29781,0.04599,0.44689
		c1.08017,0.00967,2.16034,0.01935,3.24054,0.02902c0.08362,0.18433,0.16724,0.36847,0.25089,0.55279
		c-2.05331,1.14289-4.10663,2.28596-6.74951,3.75706c1.88721,0.01693,3.16922,0.02833,4.4512,0.03991
		c0.06918,0.14044,0.1384,0.28071,0.20755,0.42115c-2.39285,0.86788-4.76569,1.79708-7.18259,2.59137
		c-5.37138,1.76547-10.76492,3.46357-16.14943,5.18913c0.06168,0.19728,0.12334,0.39455,0.18518,0.592
		c2.7218-0.8164,5.44099-1.64195,8.16888-2.43797c0.3588-0.10468,0.76164-0.05856,1.1441-0.08222
		C252.20859,97.88065,252.35197,98.00175,252.49535,98.12284z M236.86485,84.67072
		c5.86336-1.75079,11.72655-3.50156,17.58997-5.25235c-0.06996-0.22976-0.13992-0.45934-0.21007-0.68909
		C248.25143,80.12058,242.34938,81.81747,236.86485,84.67072z M328.29163,68.17931
		c-0.04474-0.32632-0.08966-0.65264-0.13458-0.97896c-4.0274,0.58423-8.05466,1.16846-12.08206,1.75269
		c0.03558,0.26517,0.07117,0.53033,0.10675,0.7955C320.21829,69.22546,324.25504,68.70238,328.29163,68.17931z M305.61588,94.8182
		c-0.23389-0.23666-0.4678-0.4735-0.70187-0.71016c-3.05225,2.00852-4.38309,5.46742-6.57663,8.19958
		c0.12784,0.10866,0.25568,0.21748,0.38351,0.32614C301.0191,100.02858,303.31747,97.42339,305.61588,94.8182z M254.82207,78.54859
		c3.14745,0.02833,5.68666,0.05113,8.50758,0.07635C260.5144,76.34366,257.93411,77.21361,254.82207,78.54859z M272.14767,77.86279
		c-0.03934,0.28573-0.07861,0.57127-0.11795,0.85699c1.33548,1.34605,2.57983-0.28814,3.87613-0.22301
		c-0.00299-0.20004-0.00595-0.40025-0.00891-0.60029C274.64716,77.88525,273.3974,77.87402,272.14767,77.86279z"/>
	<path class="st0" d="M82.87053,92.91108c0.23442-0.32096,0.46901-0.64193,0.79411-1.08675
		c-1.26778-0.69928-2.47356-1.36418-3.65203-2.01423c0.175-0.38972,0.20574-0.59545,0.2859-0.61687
		c3.35024-0.89603,6.66767-2.22584,10.07146-2.50811c2.50621-0.20781,5.28086-0.06564,7.75874,1.29266
		c1.0199,0.55901,2.39513,0.57145,3.61921,0.63865c7.02077,0.38557,14.04343,0.73849,21.06886,1.02093
		c0.72294,0.02902,1.46748-0.48127,2.25382-0.75957c0.20885,0.13734,0.67354,0.44275,1.13805,0.74817
		c0.2415-0.44862,0.58699-0.87134,0.70688-1.35036c0.55901-2.23171,1.19073-4.45876,1.52914-6.72726
		c0.24393-1.63453-0.51426-3.65791,0.20039-4.93243c1.44157-2.5703-0.64935-4.84727,0.03714-7.31357
		c0.31267-1.12337,0.1306-3.09821-2.20459-2.7522c-0.28676,0.0425-0.86373-0.16946-0.89017-0.3315
		c-0.32614-2.00127-1.91973-1.30597-3.08249-1.49668c-7.96309-1.30596-15.92722-2.60467-24.20644-3.95745
		c0.37175-0.67285,0.52498-0.9501,0.77788-1.40771c-2.62281-0.45605-4.05056-2.22187-5.15596-4.4249
		c-0.23269-0.46383-1.05531-0.60617-1.55593-0.96634c-1.50393-1.08174-2.95345-2.24173-4.48726-3.27787
		c-0.56108-0.37918-1.28161-0.59183-1.95929-0.71517c-1.70847-0.3106-3.43385-0.52723-5.44065-0.82435
		c1.30924-2.17678,1.89071-0.39075,2.65096-0.2567c0.9413,0.16584,1.9206,0.25774,2.8707,0.19296
		c0.99968-0.06823,1.98434-0.35914,3.1813-0.59304c-0.70394-2.62437-3.15936-3.06297-4.99479-4.27133
		c2.40878,0.23321,4.8578,1.76219,7.3317-0.43964c-3.25627-1.57787-6.18657-2.7515-9.72632-1.76771
		c-1.26986,0.35309-2.89506-0.57265-4.35822-0.9147c0.04716-0.25134,0.09431-0.50286,0.14148-0.75421
		c0.41251-0.02246,0.93887-0.22112,1.21959-0.03991c2.46198,1.59065,4.75882,0.40422,7.08727-0.33236
		c0.23718-0.07497,0.61653-0.32027,0.6725-0.25739c1.6005,1.79812,2.1329-0.0786,3.26526-1.07829
		c-1.53641-0.16653-2.81698-0.30524-4.42922-0.47989c-0.02885-0.21611-0.10365-0.77511-0.17844-1.33395
		c0.50787,0.00035,1.01782-0.02902,1.52328,0.00639c1.63712,0.11453,3.27147,0.27035,4.90894,0.3778
		c2.27541,0.14925,4.55152,0.30904,6.83005,0.37711c0.67596,0.02004,1.36055-0.25394,2.18922-0.4234
		c-0.48109-0.52567-0.76112-0.83178-1.23946-1.35451c2.06743,0.64746,3.81597,1.19489,5.56451,1.7425
		c0.05372-0.1496,0.10744-0.2992,0.16134-0.4488c-2.20182-0.9489-4.40348-1.89762-6.6053-2.84652
		c0.10485-0.30783,0.20988-0.61584,0.31474-0.92385c1.79864,0.39093,3.60936,0.73365,5.39366,1.18176
		c5.74848,1.44364,11.47589,2.97314,17.23958,4.35149c1.08053,0.25843,2.29183-0.06288,3.4418-0.04699
		c0.53534,0.00726,1.16742,0.0304,1.58633,0.3049c2.58844,1.69603,5.39005,1.75079,8.39375,1.82248
		c1.94478,0.04647,4.33714,1.27971,5.62912,2.76429c1.14565,1.31615,2.45766,1.57683,3.60677,1.63038
		c2.56461,0.11937,2.90266,1.37558,3.49864,3.59451c1.50755,5.61357,3.63597,11.06217,5.5652,16.55947
		c0.50511,1.43932,1.151,2.83408,1.80226,4.2164c1.5979,3.39153,0.60997,6.69358-0.18742,10.04918
		c-2.1279,8.95328-3.93448,17.95129-4.08615,27.21915c-0.02211,1.36003-1.15862,2.70193-1.9852,4.49969
		c-0.34117-1.01039-0.55435-1.64161-0.73314-2.17073c-0.82625,2.25278-1.67996,4.58089-2.53384,6.909
		c-0.24721,0.01019-0.4944,0.02039-0.74178,0.03058c-0.45674-1.67806-0.91365-3.35612-1.50238-5.51874
		c-0.8817,3.28651-0.11142,6.65144-2.614,9.54114c-0.36484-1.95877-0.6573-3.53008-1.03734-5.57108
		c-0.90829,1.75338-1.60533,3.09856-2.64821,5.11156c-0.47125-0.80051-0.76872-1.30579-1.1517-1.95618
		c-0.99277,1.60274-1.97586,3.18925-3.069,4.95385c-0.53413-0.92454-0.80777-1.93684-1.46007-2.34763
		c-0.47659-0.30006-1.45175,0.19141-2.36075,0.35897c-0.24754-1.15136-1.0712-1.81246-2.81369-1.54142
		c-0.83298,0.12956-1.77618-0.76389-2.71817-0.95788c-2.24899-0.4633-4.551-0.67907-6.78876-1.18417
		c-11.152-2.51709-22.47726-0.99623-33.7113-1.55161c-0.85406-0.04215-1.67599-0.58215-2.52953-0.83402
		c-0.57819-0.17067-1.18228-0.26516-1.78085-0.35154c-0.61308-0.08844-1.23376-0.12576-2.41845-0.24029
		c1.66821-0.95494,2.81767-1.49426,3.80544-2.24605c0.32632-0.24824,0.46832-1.42689,0.29816-1.53088
		c-1.42982-0.87323-2.87951-1.8857-4.46653-2.28094c-1.56889-0.39059-3.30447-0.11195-4.96698-0.1268
		c-0.01641-0.25497-0.03282-0.50995-0.04923-0.76492c3.55996-1.42152,7.11974-2.84323,10.81013-4.31693
		c-0.36035-0.33443-0.76475-0.70998-1.21942-1.13184c1.68739-1.53364,5.2299,0.44638,5.61443-3.47324
		c-1.64507-0.01485-3.33539,0.02315-5.01742-0.07635c-0.52808-0.03127-1.03441-0.43221-1.55074-0.66386
		c0.42219-0.36485,0.78997-0.90848,1.27798-1.05669c0.96997-0.29453,2.00593-0.3714,3.70714-0.65281
		c-1.46403-1.05254-2.43106-1.74785-3.95434-2.84323c1.2569-0.07791,1.88501-0.11695,2.51242-0.15478
		c0.24703,0.50649,0.43671,1.40097,0.75317,1.4483c1.21337,0.18156,2.46751,0.09121,3.70645,0.10226
		C86.15634,92.71967,86.02851,92.69428,82.87053,92.91108z M97.71964,89.08543c-0.00622,0.23736-0.01244,0.47453-0.01865,0.71189
		c8.05845,2.02251,16.21899,1.26934,24.35708,1.1232c0.00708-0.18743,0.01399-0.37469,0.02107-0.56195
		C113.95937,89.93414,105.83942,89.50987,97.71964,89.08543z M83.50399,106.85189c-0.038-0.3873-0.076-0.7746-0.11401-1.16172
		c-2.95309,0.2776-5.90603,0.55521-8.85896,0.83298c0.0247,0.30403,0.04941,0.60807,0.07411,0.9121
		C77.57136,107.24075,80.53777,107.0464,83.50399,106.85189z M115.09138,91.76939c-0.00605,0.22527-0.01209,0.4507-0.01814,0.67596
		c3.69488,0.03317,7.38975,0.06634,11.24701,0.10106c-0.07446-0.65108-0.13354-1.16811-0.2365-2.06898
		c-1.56145,2.28596-3.49552,1.26105-5.20295,1.32359C118.95399,91.87167,117.02147,91.78667,115.09138,91.76939z M83.04846,89.23849
		c-0.02419,0.26862-0.04837,0.53724-0.07273,0.80586c1.81367,1.53347,2.86017,1.56509,5.27274-0.23597
		C86.20695,89.58467,84.62771,89.41158,83.04846,89.23849z"/>
	<path class="st0" d="M255.1256,55.72775c0.68442,0.11505,1.36867,0.2301,2.41362,0.40578
		c-0.43463-0.69548-0.59927-1.32894-0.97861-1.50825c-3.60626-1.70501-6.5881-4.79026-10.95892-4.84709
		c-1.12338-0.01451-3.02652,0.02729-2.70383-1.73403c0.30299-1.65335,1.97154-0.70446,3.02686-0.58094
		c1.72435,0.20177,3.42522,0.6015,5.13771,0.90778c1.58167,0.28279,3.13776,1.04115,4.66-0.44275
		c0.45088-0.43964,1.57613-0.18743,2.39238-0.25221c0.09708-0.17983,0.19434-0.35949,0.29141-0.53931
		c-1.39474-0.75559-2.78951-1.51118-4.53943-2.45922c3.12619-0.62845,6.25928,1.51602,8.82483-0.79153
		c-3.75644-0.99537-7.65033-2.02701-11.27386-2.98713c-0.08084-0.67682-0.02988-1.30907-0.18173-1.36211
		c-2.22295-0.77753-4.45396-1.55247-6.73405-2.12599c-0.3987-0.10019-1.17743,0.62448-1.52777,1.13995
		c-1.40373,2.06622-2.70796,4.19999-4.049,6.30887c-0.22406-0.09173-0.4481-0.18363-0.67233-0.27553
		c-0.14407-0.3505-0.28813-0.70101-0.48369-1.17692c-0.47038,0.39075-0.91711,0.76181-1.79881,1.49443
		c-0.82866-1.51534-1.58511-2.89903-2.44781-4.4769c-0.62672,0.82141-1.0985,1.43984-1.57027,2.05827
		c-0.1508-0.06115-0.30144-0.1223-0.45207-0.18346c0.46469-1.67426,0.92937-3.34852,1.43311-5.16288
		c-0.85683,0.11298-1.82835-2.08228-2.56131,0.32839c-0.24721-0.52014-0.4317-0.90865-0.61636-1.29733
		c-0.67596,2.83339-1.77031,5.21971-4.59332,6.69842c-0.31009-0.54726-0.59822-1.05565-0.8107-1.43069
		c-0.66457,0.2776-1.36194,0.56886-2.05914,0.8601c-0.05701-0.13802-0.11401-0.27588-0.17085-0.4139
		c-0.48145,0.68097-0.96306,1.36193-1.8311,2.58981c-1.18211-5.36326,0.49872-10.2855-0.93716-15.60505
		c-1.78688,2.23966-1.00607,5.27481-4.18132,6.20609c0.17621-3.1547,0.3524-6.30922,0.52843-9.46392
		c0.25238-0.02246,0.50478-0.04509,0.75716-0.06772c0.23407,0.37227,0.44067,0.76613,0.71153,1.10938
		c0.19417,0.24599,0.55055,0.65056,0.70447,0.59874c2.03598-0.68701,4.04883-1.44243,6.08067-2.18542
		c0.54485,1.08018,1.26157,2.50137,2.03081,4.02672c0.71759-0.30818,1.25587-0.53949,2.14171-0.92005
		c0.69496,1.94426,1.34726,3.76898,1.95705,5.47485c0.43307-1.11473,1.00746-2.5931,1.58183-4.07129
		c0.21042,0.05372,0.42064,0.10745,0.63106,0.16117c-0.00813,0.88619-0.01607,1.77255-0.02402,2.65891
		c0.08896,0.0285,0.17793,0.05718,0.26672,0.08568c0.41701-1.08848,0.83418-2.17695,1.28816-3.36217
		c1.3996,1.19765,1.94633,0.20816,2.71437-0.72536c0.55124-0.67026,1.43068-1.18556,2.26488-1.44606
		c0.29453-0.0919,1.33792,0.87099,1.27037,1.18953c-0.33322,1.57286,0.30559,2.32741,2.18887,2.51778
		c-0.67233,0.46417-0.95874,0.66162-1.50375,1.03786c1.20145,0.01088,2.13947,0.01935,3.3373,0.03006
		c-1.02872,3.00924,1.00037,3.40915,3.21947,3.76052c1.14307,0.18104,2.24416,0.62742,3.62238,1.02905
		c-0.76169-2.18542,0.13872-2.48945,1.81902-2.04653c2.28389,0.60202,4.56654,1.24654,6.88792,1.65698
		c2.43509,0.43048,4.91525,0.606,7.37567,0.89293c0.03088-0.16618,0.0618-0.33219,0.09268-0.49837
		c-2.34109-0.55072-4.68222-1.10143-7.02335-1.65215c0.01483-0.30214,0.02954-0.6041,0.04437-0.90623
		c0.7627-0.05407,1.56009-0.28071,2.28226-0.13474c5.58511,1.12889,11.14517,2.38252,16.73285,3.49777
		c12.33435,2.46181,24.77988,3.62716,37.3743,3.35215c3.83325-0.08361,7.67996,0.45415,11.52066,0.70774
		c0.06924,0.00449,0.1698-0.01503,0.20297,0.0228c1.13528,1.30061,1.73523,3.06279,3.80075,3.5622
		c-0.13855,0.18225-0.27725,0.3645-0.4158,0.54692c-5.33423-0.04785-10.6683-0.09587-16.00235-0.14373
		c-0.02435,0.36277-0.04889,0.72554-0.07324,1.08813c1.89001,0.12542,3.77917,0.26897,5.6709,0.36484
		c0.53897,0.02729,1.27332-0.3353,1.59756-0.09208c2.5076,1.88173,5.19345,0.58682,7.80399,0.59269
		c0.71243,0.00156,1.57355,0.02539,2.08713,0.41114c0.38541,0.28935,0.33392,1.17243,0.45795,1.79484
		c0.20853,1.04581,0.40201,2.09455,0.5376,2.80523c0.90277,0.53776,1.60794,0.95788,2.31326,1.37783
		c-0.57336,0.51012-1.14655,1.02024-1.8356,1.63349c0.5405,0.84836,1.39233,2.03288-0.89517,2.11649
		c-7.64215,0.27916-15.28152,0.6516-22.92538,0.84455c-4.43024,0.11177-8.8674-0.05199-13.30145-0.0919
		c-0.00192,0.20971-0.00363,0.4196-0.00555,0.62931c8.70886,0.07808,17.41769,0.15634,26.12653,0.23442
		c0.06323,0.29972,0.12628,0.59926,0.18951,0.89897c-0.75351,0.32511-1.49753,0.9026-2.26245,0.93197
		c-3.40811,0.1306-6.8223,0.10054-10.23419,0.13785c-0.6796,0.00743-1.35883,0.0558-2.03824,0.44931
		c6.68408,0.29505,13.36816,0.5901,20.05222,0.88515c0.02005,0.15582,0.04025,0.31146,0.0603,0.46728
		c-2.49948,0.38937-4.996,1.09141-7.49893,1.11508c-12.18088,0.11574-24.36554,0.1686-36.54413-0.03369
		c-3.09503-0.0513-6.14972-1.3647-9.2645-1.66061c-5.07935-0.48231-9.13309-3.67587-13.9115-4.85297
		c-1.78223-0.43895-3.64099-0.56091-5.45758-0.8703c-0.43083-0.07342-0.83212-0.31924-1.24706-0.48559
		C255.06548,55.94921,255.09554,55.83848,255.1256,55.72775z M320.7001,42.70681c1.89432,1.89848,6.6091,2.15363,8.34503,0.13906
		C326.10361,42.30742,323.5181,42.19548,320.7001,42.70681z M313.3613,46.22824c-0.0126-0.12213-0.02521-0.24426-0.03781-0.36639
		c-5.048-0.04526-10.09601-0.09052-15.14401-0.13595c-0.00656,0.12196-0.01294,0.24392-0.0195,0.36605
		C303.22714,46.13738,308.29431,46.18281,313.3613,46.22824z M272.13779,36.99995c-0.04208,0.28866-0.08414,0.57732-0.12625,0.86598
		c1.61243,0.22181,3.22491,0.44361,4.83734,0.66542c0.0325-0.2301,0.06494-0.46037,0.09741-0.69064
		C275.34344,37.56052,273.74063,37.28032,272.13779,36.99995z M283.14752,57.81573c-0.02069,0.18899-0.04138,0.37814-0.06207,0.5673
		c2.06271,0.20436,4.12549,0.40872,6.18808,0.61308c0.01935-0.22422,0.03854-0.44845,0.05771-0.67268
		C287.27002,58.15414,285.20877,57.98502,283.14752,57.81573z"/>
	<path class="st0" d="M222.24446,69.15585c-0.58734-0.00518-1.19006-0.09449-1.75684,0.01054
		c-0.46365,0.08569-0.86632,0.49959-1.3298,0.58614c-0.34428,0.06409-0.77408-0.1014-1.1118-0.27174
		c-1.2258-0.61774-2.42882-1.28057-3.64046-1.92647c-0.13145,0.19918-0.26274,0.39853-0.39403,0.5977
		c0.38055,0.60738,0.82486,1.18539,1.12146,1.83129c0.23235,0.50562,0.28159,1.09538,0.41219,1.64783
		c-0.58475,0.07687-1.20354,0.31595-1.7482,0.20177c-2.0657-0.43325-4.10722-0.98103-6.50304-1.13995
		c0.86856,0.96427,1.73714,1.92854,2.91354,3.2345c-5.76265-0.05165-11.44412-0.10262-17.08083-0.15323
		c3.90164-1.42447,8.29062-0.39404,12.40924-1.17519c0.06477-0.21092,0.12955-0.42184,0.1945-0.63294
		c-2.68068-1.81487-5.36136-3.62992-8.04187-5.44497c-0.11678,0.15012-0.23355,0.30041-0.35014,0.45052
		c0.985,0.94579,1.97,1.89175,2.955,2.83753c-0.1313,0.18173-0.26259,0.36329-0.39388,0.54501
		c-6.96945-4.68177-13.49995-10.17148-21.98544-12.06133c0.06703-0.19382,0.13423-0.38764,0.20125-0.58146
		c2.56166,0.56211,5.12349,1.12423,7.58565,1.66441c-2.46803-3.67173-6.53397-4.51542-10.66968-5.22541
		c2.22878-0.53396,4.4413,1.22046,6.72795-0.49803c1.14272,0.24098,2.59724,0.54778,4.20724,0.88723
		c0.07964-0.80673,0.14268-1.44295,0.22784-2.30357c1.48096,0.23822,2.86034,0.46037,4.23972,0.68235
		c0.06151-0.18985,0.12317-0.3797,0.18484-0.56972c-1.50894-0.52964-3.02791-1.03285-4.52095-1.60395
		c-0.50995-0.1952-1.38387-0.59857-1.36263-0.84352c0.21594-2.4879-1.84596-2.64907-3.32243-3.24988
		c-1.02023-0.41511-2.08125-0.39559-2.46837-1.82697c-0.14079-0.52031-1.31581-0.88342-2.08057-1.08882
		c-2.02838-0.54432-4.09045-0.96358-6.1261-1.42965c-1.1156-0.01002-2.29305-0.02073-3.4577-0.03109
		c-0.1857-1.99557,0.40475-4.10117-2.31738-4.75467c0.52515-0.89068,1.00313-1.70138,1.55576-2.63853
		c-1.23082-0.95546-1.17244-1.96827-0.20558-3.35335c1.05099-1.506,1.56958-3.37443,2.52971-4.95765
		c0.37762-0.62258,1.32254-0.90122,2.00903-1.33637c0.19624,0.72882,0.50546,1.45021,0.55315,2.1887
		c0.03799,0.58526-0.24445,1.19126-0.48524,2.21703c0.70532-0.54363,1.07016-0.91055,1.50739-1.13823
		c0.46191-0.24064,1.2816-0.63467,1.4471-0.4678c1.08052,1.08934,2.65147,2.20062,2.88676,3.51522
		c0.50908,2.84272-1.52034,7.74543-3.43956,9.93931c1.99591,0.59183,3.99597,1.18867,5.99844,1.77774
		c2.6812,0.78876,5.34132,1.66821,8.05725,2.31204c1.17657,0.27898,2.46957,0.0672,3.69624,0.07825
		c0.01349-2.84755,0.01349-2.84755-4.33818-3.47342c0.33272-0.65799,0.50218-1.55886,0.91884-1.69343
		c0.74696-0.24098,1.64299,0.00311,2.47633-0.00138c0.72571-0.00397,1.45107-0.071,2.29112-0.57766
		c-0.91573-0.43359-1.83128-0.86719-2.74684-1.30095c0.05823-0.30801,0.11627-0.61619,0.17448-0.92419
		c1.98381,0.19849,4.05418,0.10123,5.93523,0.65126c5.5994,1.63677,11.19345,3.34368,16.65137,5.39159
		c3.07576,1.15395,5.88237,3.0279,8.79901,4.59799c0.22682,0.12213,0.5267,0.40975,0.52222,0.61463
		c-0.06029,2.76463,2.55647,3.007,4.07268,4.15282c2.02925,1.53382,2.18973,1.53779,0.41873,3.04586
		c0.56212,0.72277,1.12044,1.44071,1.67876,2.15881c-0.68356,0.34999-1.36713,0.6998-2.35057,1.20318
		c0.38522,0.60565,0.83972,1.32013,1.38612,2.17903c-0.80586,0.04284-1.52536,0.08102-2.20079,0.11695
		c0.07549,4.7951-3.52351,0.48904-4.8205,2.2286c0.61308,0.50097,1.29439,1.05773,2.12875,1.73956
		c-0.60945,0.46106-1.07448,0.81294-1.66855,1.26225c0.66835,0.54709,1.3279,1.0871,1.98744,1.62693
		C222.34067,68.82193,222.29248,68.98898,222.24446,69.15585z M189.41106,59.17456
		c-1.50653-0.84508-2.92857-1.64299-4.35063-2.44073C186.29298,59.11824,188.1944,60.11171,189.41106,59.17456z"/>
	<path class="st0" d="M141.67015,30.66914c1.11697-0.53137,1.99728-0.95011,2.742-1.30424
		c-0.8938-0.83851-1.54591-1.71503-2.4157-2.20563c-1.39354-0.78617-0.67889-1.98797-0.70377-2.94446
		c-0.03351-1.27988,0.86028-1.87672,2.12531-1.3533c1.26036,0.52135,2.3566,0.59857,3.82028,0.44655
		c2.24501-0.23286,4.69006,0.65851,6.9261,1.43189c1.45401,0.50304,2.6501,1.71175,4.03467,2.47149
		c0.72708,0.39887,1.61086,0.51237,2.49567,0.77615c-0.40648,0.17741-0.80881,0.35309-1.61691,0.70584
		c0.9584,0.67475,1.66666,1.17312,2.40636,1.69378c0.51945-0.80172,0.75456-1.52172,1.24757-1.83249
		c0.58095-0.36605,1.38544-0.3778,2.09283-0.54311c0.10814,0.62741,0.3987,1.2899,0.28606,1.87482
		c-0.23061,1.19558-0.57628,2.39375-1.0636,3.50831c-0.52272,1.1954-1.37662,1.71071-2.90128,1.75061
		c-1.1942,0.03109-2.35574,1.20663-3.53801,1.86238c-0.39336,0.21818-0.80051,0.55745-1.21147,0.573
		c-1.60516,0.06081-3.0248,0.07411-4.58418,1.09953c-0.81554,0.53621-3.1749-0.54139-4.37117-1.48234
		c-2.04671-1.61-3.73927-3.67397-5.54465-5.58161C141.6983,31.40729,141.73648,30.97491,141.67015,30.66914z"/>
	<path class="st0" d="M252.49535,98.12284c-0.14337-0.12109-0.28676-0.2422-0.42996-0.36346
		c1.74094-0.6656,3.48206-1.33118,5.22316-1.99678c0.10107,0.29419,0.2023,0.58838,0.30353,0.88256
		C255.8931,97.13766,254.19414,97.63034,252.49535,98.12284z"/>
	<path class="st0" d="M236.86485,84.67072c5.48453-2.85325,11.38658-4.55014,17.3799-5.94144
		c0.07014,0.22975,0.14011,0.45933,0.21007,0.68909C248.5914,81.16916,242.72821,82.91994,236.86485,84.67072z"/>
	<path class="st0" d="M328.29163,68.17931c-4.03659,0.52307-8.07333,1.04615-12.10989,1.56923
		c-0.03558-0.26517-0.07117-0.53033-0.10675-0.7955c4.0274-0.58423,8.05466-1.16846,12.08206-1.75269
		C328.20197,67.52667,328.24689,67.853,328.29163,68.17931z"/>
	<path class="st0" d="M305.61588,94.8182c-2.2984,2.60519-4.59677,5.21038-6.89499,7.81557
		c-0.12784-0.10866-0.25568-0.21748-0.38351-0.32614c2.19354-2.73216,3.52438-6.19106,6.57663-8.19958
		C305.14807,94.3447,305.38199,94.58154,305.61588,94.8182z"/>
	<path class="st0" d="M254.82207,78.54859c3.11205-1.33498,5.69234-2.20493,8.50758,0.07635
		C260.50873,78.59972,257.96951,78.57692,254.82207,78.54859z"/>
	<path class="st0" d="M272.14767,77.86279c1.24973,0.01123,2.49948,0.02246,3.74927,0.03369
		c0.00296,0.20004,0.00592,0.40025,0.00891,0.60029c-1.2963-0.06512-2.54065,1.56906-3.87613,0.22301
		C272.06906,78.43406,272.10834,78.14851,272.14767,77.86279z"/>
	<path class="st0" d="M97.71964,89.08543c8.11977,0.42444,16.23972,0.8487,24.3595,1.27314
		c-0.00708,0.18726-0.01399,0.37452-0.02107,0.56195c-8.13808,0.14614-16.29863,0.89931-24.35708-1.1232
		C97.70721,89.55997,97.71342,89.32279,97.71964,89.08543z"/>
	<path class="st0" d="M83.50399,106.85189c-2.96622,0.19451-5.93263,0.38885-8.89886,0.58337
		c-0.0247-0.30403-0.04941-0.60807-0.07411-0.9121c2.95293-0.27778,5.90586-0.55538,8.85896-0.83298
		C83.42799,106.07729,83.46599,106.46459,83.50399,106.85189z"/>
	<path class="st0" d="M115.09138,91.76939c1.93009,0.01728,3.86261,0.10227,5.78942,0.03162
		c1.70743-0.06254,3.64149,0.96237,5.20295-1.32359c0.10296,0.90087,0.16204,1.41791,0.2365,2.06898
		c-3.85726-0.03472-7.55213-0.06789-11.24701-0.10106C115.07928,92.22009,115.08533,91.99466,115.09138,91.76939z"/>
	<path class="st0" d="M83.04846,89.23849c1.57925,0.1731,3.15849,0.34618,5.20001,0.56989
		c-2.41257,1.80106-3.45908,1.76944-5.27274,0.23597C83.00009,89.77573,83.02428,89.50711,83.04846,89.23849z"/>
	<path class="st0" d="M82.87053,92.91108c3.15798-0.2168,3.28581-0.19141,4.53391,1.47543
		c-1.23894-0.01105-2.49308,0.07929-3.70645-0.10226c-0.31647-0.04733-0.50614-0.94181-0.75317-1.4483
		C82.9455,92.8349,82.87053,92.91108,82.87053,92.91108z"/>
	<path class="st0" d="M320.7001,42.70681c2.81799-0.51133,5.4035-0.39939,8.34503,0.13906
		C327.3092,44.86044,322.59442,44.60529,320.7001,42.70681z"/>
	<path class="st0" d="M313.3613,46.22824c-5.06699-0.04543-10.13416-0.09087-15.20132-0.1363
		c0.00656-0.12213,0.01294-0.24409,0.0195-0.36605c5.048,0.04543,10.09601,0.09069,15.14401,0.13595
		C313.33609,45.98398,313.34869,46.10611,313.3613,46.22824z"/>
	<path class="st0" d="M272.13779,36.99995c1.60284,0.28037,3.20566,0.56057,4.8085,0.84076
		c-0.03247,0.23027-0.06491,0.46054-0.09741,0.69064c-1.61243-0.22181-3.22491-0.44361-4.83734-0.66542
		C272.05365,37.57727,272.0957,37.28862,272.13779,36.99995z"/>
	<path class="st0" d="M283.14752,57.81573c2.06125,0.16929,4.1225,0.33841,6.18372,0.5077
		c-0.01917,0.22423-0.03836,0.44845-0.05771,0.67268c-2.06259-0.20436-4.12537-0.40872-6.18808-0.61308
		C283.10614,58.19387,283.12683,58.00472,283.14752,57.81573z"/>
	<path class="st0" d="M189.41106,59.17456c-1.21666,0.93715-3.11807-0.05632-4.35063-2.44073
		C186.48248,57.53157,187.90453,58.32948,189.41106,59.17456z"/>
</g>
</svg>
