<?xml version="1.0" encoding="utf-8"?>
<!-- Generator: Adobe Illustrator 22.0.1, SVG Export Plug-In . SVG Version: 6.00 Build 0)  -->
<svg version="1.1" id="Capa_1" xmlns="http://www.w3.org/2000/svg" xmlns:xlink="http://www.w3.org/1999/xlink" x="0px" y="0px" viewBox="0 0 100 100" style="enable-background: new 0 0 100 100;" xml:space="preserve">
    <style type="text/css">
        * {
            transition: all ease 0.5s;
        }
        svg #agua {
            fill: #fff;
            opacity: 0;
            transition: all ease 1;
        }
        svg:hover #agua {
            fill: #00aeef;
            opacity: 1;
        }
    </style>
    <path
        id="agua"
        d="M61.1,65.7c-0.4,0-0.7,0.1-1,0.3l6.7-43.1h-8l-7.4,31.4c0,0-0.1,0-0.1,0c-1,0-1.7,0.8-1.7,1.7
	c0,0.7,0.4,1.3,1.1,1.6l-3.9,16.6c-0.3-0.4-0.8-0.7-1.4-0.7c-1,0-1.7,0.8-1.7,1.7c0,1,0.8,1.7,1.7,1.7c0.3,0,0.6-0.1,0.8-0.2
	l-4.7,19.9l14,0l4.4-28.3c0.3,0.4,0.8,0.7,1.4,0.7c1,0,1.7-0.8,1.7-1.7S62.1,65.7,61.1,65.7z"
    />
    <g>
        <path
            d="M74.5,66.8H63.9v0.5c0,0.1,0,0.2,0,0.3c-0.1,1.5-1.4,2.6-2.9,2.5c-1.5-0.1-2.6-1.4-2.5-2.9v-0.5H43.2v-2.5h26
		c2.7,0,4.4-1.5,4.4-3.7c0-2.2-1.7-3.9-4.4-3.9H53.8v0.1c0,1.5-1.2,2.7-2.7,2.7s-2.7-1.2-2.7-2.7v-0.1H35.7l1.4-2.5H46
		c2.7,0,4.6-1.9,5.3-5.8l0.4-1.8H34.9C17.6,46.5,6.6,56,6.6,70.8C6.6,84.7,14.9,94,32,94h34.5h0.1c2.3,0,4.1-1.7,4.2-4
		c0-1.9-1.6-3.7-4.3-3.7H43.2V84l27.4,0.1c2.6,0,4.3-1.6,4.3-3.7c0-0.1,0-0.2,0-0.3c-0.2-2.2-2.1-3.9-4.3-3.7H47.8
		c-0.4,1-1.4,1.6-2.5,1.6c-0.1,0-0.2,0-0.3,0c-1.5-0.1-2.6-1.4-2.5-2.9s1.4-2.6,2.9-2.5c1.1,0,2,0.6,2.5,1.5h26.6
		c2.7,0,4.4-1.6,4.4-3.5C78.9,68.3,77.2,66.8,74.5,66.8z"
        />
        <path
            d="M81.4,51.8c-0.6-2.1-2.8-3.4-5-2.8l-12.5,2.4l-0.1,1h5.5c2.2,0,4.3,0.7,6,2.1c0.6,0.6,1.2,1.3,1.6,2.1l1-0.1
		c2.7-0.4,4.1-2.4,3.6-4.4C81.5,52,81.5,51.9,81.4,51.8z"
        />
        <path
            d="M46.6,42.4l6.6-1.5l2-8.2L38,36.2l0.1-2.1l6.5-1.4c3.6-0.7,4.9-1.8,5.9-6.1l0.6-2.8L35,26.5C20.5,29,12.2,38.2,11.8,49.7
		c5.8-4.7,13.5-7.3,23-7.3H46.6z"
        />
        <path d="M78.3,38.5l-12.9,2.6L64.3,49l15.5-3c2.5-0.5,3.9-2.5,3.5-4.5C82.9,39.1,80.9,38,78.3,38.5z" />
        <path d="M68,5.7c-5.2,0-8,2-9.2,6.7L56.6,21h13l0.6-2.9c0.2-1.2,0.8-1.7,2.2-1.7h21V5.7H68z" />
        <path d="M76.4,32.6c-0.5-2.2-2.5-3.5-5.2-2.9l-4.4,1l-1.1,7.9l7-1.5C75.4,36.5,76.9,34.8,76.4,32.6z" />
    </g>
</svg>