<?xml version="1.0" encoding="utf-8"?>
<!-- Generator: Adobe Illustrator 22.0.1, SVG Export Plug-In . SVG Version: 6.00 Build 0)  -->
<svg version="1.1" id="Capa_1" xmlns="http://www.w3.org/2000/svg" xmlns:xlink="http://www.w3.org/1999/xlink" viewBox="0 0 800 500" style="enable-background: new 0 0 800 500;" xml:space="preserve">
    <style type="text/css">
        * {
            transition: all ease 0.5s;
        }
        .st0 {
            opacity: 0.5;
            fill: none;
            stroke: #66b7ff;
            stroke-width: 6.3559;
            enable-background: new;
        }
        .st1 {
            opacity: 0.5;
            fill: none;
            stroke: #66b7ff;
            stroke-width: 3.3051;
            enable-background: new;
        }
        .st2 {
            opacity: 0.5;
            fill: none;
            stroke: #66b7ff;
            stroke-width: 2.7966;
            enable-background: new;
        }
        .st3 {
            opacity: 0.5;
            fill: none;
            stroke: #66b7ff;
            stroke-width: 0.7627;
            enable-background: new;
        }
        .st4 {
            opacity: 0.5;
            fill: none;
            stroke: #66b7ff;
            stroke-width: 2.0339;
            enable-background: new;
        }
        .st5 {
            opacity: 0.5;
            fill: none;
            stroke: #66b7ff;
            stroke-width: 1.5254;
            enable-background: new;
        }
        .st6 {
            opacity: 0.5;
            fill: none;
            stroke: #66b7ff;
            stroke-width: 7.8814;
            enable-background: new;
        }
        .st7 {
            opacity: 0.5;
            fill: none;
            stroke: #66b7ff;
            stroke-width: 7.6271;
            enable-background: new;
        }
        .st8 {
            opacity: 0.5;
            fill: none;
            stroke: #66b7ff;
            stroke-width: 15;
            enable-background: new;
        }
        .st9 {
            opacity: 0.5;
            fill: none;
            stroke: #66b7ff;
            stroke-width: 17.5424;
            enable-background: new;
        }
        .st10 {
            opacity: 0.5;
            fill: none;
            stroke: #66b7ff;
            stroke-width: 5.339;
            enable-background: new;
        }
        .st11 {
            opacity: 0.5;
            fill: none;
            stroke: #66b7ff;
            stroke-width: 8.3898;
            enable-background: new;
        }
        .st12 {
            opacity: 0.5;
            fill: none;
            stroke: #66b7ff;
            stroke-width: 10.1695;
            enable-background: new;
        }
        .st13 {
            opacity: 0.5;
            fill: none;
            stroke: #66b7ff;
            stroke-width: 4.5763;
            enable-background: new;
        }
        .st14 {
            opacity: 0.5;
            fill: none;
            stroke: #66b7ff;
            stroke-width: 1.0169;
            enable-background: new;
        }
        .st15 {
            opacity: 0.5;
            fill: none;
            stroke: #66b7ff;
            stroke-width: 1.2712;
            enable-background: new;
        }
        .st16 {
            opacity: 0.5;
            fill: none;
            stroke: #66b7ff;
            stroke-width: 11.1864;
            enable-background: new;
        }
        .st17 {
            opacity: 0.5;
            fill: none;
            stroke: #66b7ff;
            stroke-width: 30;
            enable-background: new;
        }
        .st18 {
            font-family: "Helvetica";
        }
        .st19 {
            font-size: 12px;
        }
        #arcs path:hover {
            stroke: black;
            cursor: pointer;
        }
    </style>
    <g id="arcs">
        <path class="st0" d="M24.2,369.4C24.2,306.7,75,256,137.7,256c62.6,0,113.4,50.8,113.4,113.4" />
        <path class="st1" d="M24.2,369.4c0-96.6,78.3-175,175-175s175,78.3,175,175" />
        <path class="st2" d="M24.2,369.4c0.1-175.6,142.5-318,318.2-317.9c175.5,0.1,317.8,142.4,317.9,317.9" />
        <path class="st1" d="M24.2,369.4C24.2,173,183.4,13.8,379.8,13.8S735.5,173,735.5,369.4" />
        <path class="st3" d="M74.2,369.4c0-48.8,39.6-88.4,88.5-88.4c48.8,0,88.4,39.6,88.4,88.4" />
        <path class="st4" d="M74.2,369.4c0-161.9,131.2-293.1,293.1-293.1s293.1,131.2,293.1,293.1" />
        <path class="st5" d="M121.8,369.4c0-35.7,29-64.7,64.7-64.7s64.7,29,64.7,64.7" />
        <path class="st3" d="M121.8,369.4c0-130.6,105.8-236.4,236.4-236.4s236.4,105.8,236.4,236.4" />
        <path class="st6" d="M121.8,369.4c0-148.7,120.6-269.2,269.4-269.2c148.7,0,269.1,120.5,269.2,269.2" />
        <path class="st7" d="M185.1,369.4c0-18.2,14.8-33,33-33s33,14.8,33,33l0,0" />
        <path class="st8" d="M185.1,369.4c0-52.2,42.3-94.6,94.6-94.6s94.6,42.3,94.6,94.6" />
        <path class="st3" d="M185.1,369.4c0-113.1,91.7-204.7,204.7-204.7s204.7,91.7,204.7,204.7" />
        <path class="st9" d="M185.1,369.4c0-131.2,106.4-237.6,237.7-237.5c131.2,0,237.5,106.4,237.5,237.5" />
        <path class="st10" d="M185.1,369.4c0-152,123.2-275.2,275.2-275.2s275.2,123.2,275.2,275.2" />
        <path class="st11" d="M310.9,369.4c0-17.5,14.2-31.7,31.7-31.7c17.5,0,31.7,14.2,31.7,31.7" />
        <path class="st12" d="M310.9,369.4c0-96.5,78.2-174.7,174.7-174.7c96.5,0,174.7,78.2,174.7,174.7" />
        <path class="st13" d="M310.9,369.4c0-117.2,95-212.3,212.3-212.3s212.3,95,212.3,212.3" />
        <path class="st14" d="M425.8,369.4c0-64.7,52.6-117.2,117.3-117.2c64.7,0,117.1,52.5,117.2,117.2" />
        <path class="st15" d="M475.6,369.4c0-32.9,26.6-59.5,59.5-59.5c32.8,0,59.5,26.6,59.5,59.5" />
        <path class="st16" d="M475.6,369.4c0-51,41.4-92.3,92.4-92.3c51,0,92.3,41.3,92.3,92.3" />
        <path class="st7" d="M475.6,369.4c0-71.8,58.2-129.9,129.9-129.9s129.9,58.2,129.9,129.9" />
        <path class="st3" d="M475.6,369.4c0-85.5,69.3-154.9,154.9-154.9s154.9,69.3,154.9,154.9" />
        <path class="st17" d="M539.5,369.4c0-33.3,27.1-60.4,60.4-60.3c33.3,0,60.3,27,60.3,60.3" />
        <path class="st5" d="M539.5,369.4c0-54.1,43.9-98,98-98c54.1,0,98,43.9,98,98" />
    </g>
    <g id="nodes">
        <g>
            <circle cx="24.2" cy="369.4" r="14.2" />
            <text transform="matrix(6.123234e-17 -1 1 6.123234e-17 24.2296 444.6203)" class="st18 st19">Arya Stark</text>
        </g>
        <g>
            <circle cx="74.2" cy="369.4" r="7.2" />
            <text transform="matrix(6.123234e-17 -1 1 6.123234e-17 74.1964 450.2316)" class="st18 st19">Benjen Stark</text>
        </g>
        <g>
            <circle cx="121.8" cy="369.4" r="11.8" />
            <text transform="matrix(6.123234e-17 -1 1 6.123234e-17 121.7567 442.8859)" class="st18 st19">Bran Stark</text>
        </g>
        <g>
            <circle cx="185.1" cy="369.4" r="23" />
            <text transform="matrix(6.123234e-17 -1 1 6.123234e-17 185.119 469.3566)" class="st18 st19">Catelyn Stark</text>
        </g>
        <g>
            <circle cx="251.1" cy="369.4" r="14.4" />
            <text transform="matrix(6.123234e-17 -1 1 6.123234e-17 251.0835 476.175)" class="st18 st19">Cersei Lannister</text>
        </g>
        <g>
            <circle cx="310.9" cy="369.4" r="16.8" />
            <text transform="matrix(6.123234e-17 -1 1 6.123234e-17 310.9109 461.2277)" class="st18 st19">Eddard Stark</text>
        </g>
        <g>
            <circle cx="374.2" cy="369.4" r="17.9" />
            <text transform="matrix(6.123234e-17 -1 1 6.123234e-17 374.2283 476.9992)" class="st18 st19">Jaime Lannister</text>
        </g>
        <g>
            <circle cx="425.8" cy="369.4" r="5.1" />
            <text transform="matrix(6.123234e-17 -1 1 6.123234e-17 425.8358 447.5011)" class="st18 st19">Rickon Stark</text>
        </g>
        <g>
            <circle cx="475.6" cy="369.4" r="16.1" />
            <text transform="matrix(6.123234e-17 -1 1 6.123234e-17 475.5925 450.4679)" class="st18 st19">Robb Stark</text>
        </g>
        <g>
            <ellipse transform="matrix(0.1602 -0.9871 0.9871 0.1602 88.5092 842.7784)" cx="539.5" cy="369.4" rx="19.3" ry="19.3" />
            <text transform="matrix(6.123234e-17 -1 1 6.123234e-17 539.5382 459.0363)" class="st18 st19">Sansa Stark</text>
        </g>
        <g>
            <circle cx="594.6" cy="369.4" r="7.2" />
            <text transform="matrix(6.123234e-17 -1 1 6.123234e-17 594.5707 476.0363)" class="st18 st19">Stafford Lannister</text>
        </g>
        <g>
            <circle cx="660.3" cy="369.4" r="30" />
            <text transform="matrix(6.123234e-17 -1 1 6.123234e-17 660.3079 489.757)" class="st18 st19">Tyrion Lannister</text>
        </g>
        <g>
            <circle cx="735.5" cy="369.4" r="16.6" />
            <text transform="matrix(6.123234e-17 -1 1 6.123234e-17 735.4638 474.3234)" class="st18 st19">Tywin Lannister</text>
        </g>
        <g>
            <circle cx="785.3" cy="369.4" r="4.7" />
            <text transform="matrix(6.123234e-17 -1 1 6.123234e-17 785.3099 467.757)" class="st18 st19">Willem Lannister</text>
        </g>
    </g>
</svg>