<?xml version="1.0" encoding="utf-8"?>
<!-- Generator: Adobe Illustrator 22.0.1, SVG Export Plug-In . SVG Version: 6.00 Build 0)  -->
<svg version="1.1" id="Capa_1" xmlns="http://www.w3.org/2000/svg" xmlns:xlink="http://www.w3.org/1999/xlink" x="0px" y="0px" viewBox="0 0 500 800" style="enable-background: new 0 0 500 800;" xml:space="preserve">
    <style type="text/css">
        * {
            transition: all ease 0.5s;
        }
        .st0 {
            opacity: 0.5;
            fill: none;
            stroke: #66b7ff;
            stroke-width: 6.3559;
            enable-background: new;
        }
        .st1 {
            opacity: 0.5;
            fill: none;
            stroke: #66b7ff;
            stroke-width: 3.3051;
            enable-background: new;
        }
        .st2 {
            opacity: 0.5;
            fill: none;
            stroke: #66b7ff;
            stroke-width: 2.7966;
            enable-background: new;
        }
        .st3 {
            opacity: 0.5;
            fill: none;
            stroke: #66b7ff;
            stroke-width: 0.7627;
            enable-background: new;
        }
        .st4 {
            opacity: 0.5;
            fill: none;
            stroke: #66b7ff;
            stroke-width: 2.0339;
            enable-background: new;
        }
        .st5 {
            opacity: 0.5;
            fill: none;
            stroke: #66b7ff;
            stroke-width: 1.5254;
            enable-background: new;
        }
        .st6 {
            opacity: 0.5;
            fill: none;
            stroke: #66b7ff;
            stroke-width: 7.8814;
            enable-background: new;
        }
        .st7 {
            opacity: 0.5;
            fill: none;
            stroke: #66b7ff;
            stroke-width: 7.6271;
            enable-background: new;
        }
        .st8 {
            opacity: 0.5;
            fill: none;
            stroke: #66b7ff;
            stroke-width: 15;
            enable-background: new;
        }
        .st9 {
            opacity: 0.5;
            fill: none;
            stroke: #66b7ff;
            stroke-width: 17.5424;
            enable-background: new;
        }
        .st10 {
            opacity: 0.5;
            fill: none;
            stroke: #66b7ff;
            stroke-width: 5.339;
            enable-background: new;
        }
        .st11 {
            opacity: 0.5;
            fill: none;
            stroke: #66b7ff;
            stroke-width: 8.3898;
            enable-background: new;
        }
        .st12 {
            opacity: 0.5;
            fill: none;
            stroke: #66b7ff;
            stroke-width: 10.1695;
            enable-background: new;
        }
        .st13 {
            opacity: 0.5;
            fill: none;
            stroke: #66b7ff;
            stroke-width: 4.5763;
            enable-background: new;
        }
        .st14 {
            opacity: 0.5;
            fill: none;
            stroke: #66b7ff;
            stroke-width: 1.0169;
            enable-background: new;
        }
        .st15 {
            opacity: 0.5;
            fill: none;
            stroke: #66b7ff;
            stroke-width: 1.2712;
            enable-background: new;
        }
        .st16 {
            opacity: 0.5;
            fill: none;
            stroke: #66b7ff;
            stroke-width: 11.1864;
            enable-background: new;
        }
        .st17 {
            opacity: 0.5;
            fill: none;
            stroke: #66b7ff;
            stroke-width: 30;
            enable-background: new;
        }
        .st18 {
            font-family: "Helvetica";
        }
        .st19 {
            font-size: 12px;
        }
        #arcs path:hover {
            stroke: black;
            cursor: pointer;
        }
    </style>
    <g id="arcs">
        <path class="st0" d="M132.3,27.7c62.7,0,113.4,50.8,113.4,113.5c0,62.6-50.8,113.4-113.4,113.4" />
        <path class="st1" d="M132.3,27.7c96.6,0,175,78.3,175,175s-78.3,175-175,175" />
        <path class="st2" d="M132.3,27.7c175.6,0.1,318,142.5,317.9,318.2c-0.1,175.5-142.4,317.8-317.9,317.9" />
        <path class="st1" d="M132.3,27.7c196.4,0,355.6,159.2,355.6,355.6S328.7,739,132.3,739" />
        <path class="st3" d="M132.3,77.7c48.8,0,88.4,39.6,88.4,88.5c0,48.8-39.6,88.4-88.4,88.4" />
        <path class="st4" d="M132.3,77.7c161.9,0,293.1,131.2,293.1,293.1S294.2,663.9,132.3,663.9" />
        <path class="st5" d="M132.3,125.3c35.7,0,64.7,29,64.7,64.7s-29,64.7-64.7,64.7" />
        <path class="st3" d="M132.3,125.3c130.6,0,236.4,105.8,236.4,236.4S262.9,598.1,132.3,598.1" />
        <path class="st6" d="M132.3,125.3c148.7,0,269.2,120.6,269.2,269.4c0,148.7-120.5,269.1-269.2,269.2" />
        <path class="st7" d="M132.3,188.6c18.2,0,33,14.8,33,33s-14.8,33-33,33l0,0" />
        <path class="st8" d="M132.3,188.6c52.2,0,94.6,42.3,94.6,94.6s-42.3,94.6-94.6,94.6" />
        <path class="st3" d="M132.3,188.6c113.1,0,204.7,91.7,204.7,204.7S245.3,598,132.3,598" />
        <path class="st9" d="M132.3,188.6c131.2,0,237.6,106.4,237.5,237.7c0,131.2-106.4,237.5-237.5,237.5" />
        <path class="st10" d="M132.3,188.6c152,0,275.2,123.2,275.2,275.2S284.3,739,132.3,739" />
        <path class="st11" d="M132.3,314.4c17.5,0,31.7,14.2,31.7,31.7s-14.2,31.7-31.7,31.7" />
        <path class="st12" d="M132.3,314.4c96.5,0,174.7,78.2,174.7,174.7s-78.2,174.7-174.7,174.7" />
        <path class="st13" d="M132.3,314.4c117.2,0,212.3,95,212.3,212.3S249.6,739,132.3,739" />
        <path class="st14" d="M132.3,429.3c64.7,0,117.2,52.6,117.2,117.3S197,663.7,132.3,663.8" />
        <path class="st15" d="M132.3,479.1c32.9,0,59.5,26.6,59.5,59.5c0,32.8-26.6,59.5-59.5,59.5" />
        <path class="st16" d="M132.3,479.1c51,0,92.3,41.4,92.3,92.4s-41.3,92.3-92.3,92.3" />
        <path class="st7" d="M132.3,479.1c71.8,0,129.9,58.2,129.9,129.9S204,738.9,132.3,738.9" />
        <path class="st3" d="M132.3,479.1c85.5,0,154.9,69.3,154.9,154.9s-69.3,154.9-154.9,154.9" />
        <path class="st17" d="M132.3,543c33.3,0,60.4,27.1,60.3,60.4c0,33.3-27,60.3-60.3,60.3" />
        <path class="st5" d="M132.3,543c54.1,0,98,43.9,98,98s-43.9,98-98,98" />
    </g>
    <g id="nodes">
        <g>
            <ellipse transform="matrix(0.9999 -1.020249e-02 1.020249e-02 0.9999 -0.2757 1.3512)" cx="132.3" cy="27.7" rx="14.2" ry="14.2" />
            <text transform="matrix(1 0 0 1 57.0779 27.7296)" class="st18 st19">Arya Stark</text>
        </g>
        <g>
            <circle cx="132.3" cy="77.7" r="7.2" />
            <text transform="matrix(1 0 0 1 51.4666 77.6964)" class="st18 st19">Benjen Stark</text>
        </g>
        <g>
            <circle cx="132.3" cy="125.3" r="11.8" />
            <text transform="matrix(1 0 0 1 58.8123 125.2567)" class="st18 st19">Bran Stark</text>
        </g>
        <g>
            <circle cx="132.3" cy="188.6" r="23" />
            <text transform="matrix(1 0 0 1 32.3416 188.619)" class="st18 st19">Catelyn Stark</text>
        </g>
        <g>
            <circle cx="132.3" cy="254.6" r="14.4" />
            <text transform="matrix(1 0 0 1 25.5233 254.5835)" class="st18 st19">Cersei Lannister</text>
        </g>
        <g>
            <circle cx="132.3" cy="314.4" r="16.8" />
            <text transform="matrix(1 0 0 1 40.4705 314.4109)" class="st18 st19">Eddard Stark</text>
        </g>
        <g>
            <circle cx="132.3" cy="377.7" r="17.9" />
            <text transform="matrix(1 0 0 1 24.699 377.7283)" class="st18 st19">Jaime Lannister</text>
        </g>
        <g>
            <circle cx="132.3" cy="429.3" r="5.1" />
            <text transform="matrix(1 0 0 1 54.1971 429.3358)" class="st18 st19">Rickon Stark</text>
        </g>
        <g>
            <circle cx="132.3" cy="479.1" r="16.1" />
            <text transform="matrix(1 0 0 1 51.2303 479.0925)" class="st18 st19">Robb Stark</text>
        </g>
        <g>
            <ellipse cx="132.3" cy="543.1" rx="19.3" ry="19.3" />
            <text transform="matrix(1 0 0 1 42.6619 543.0382)" class="st18 st19">Sansa Stark</text>
        </g>
        <g>
            <circle cx="132.3" cy="598.1" r="7.2" />
            <text transform="matrix(1 0 0 1 25.6619 598.0707)" class="st18 st19">Stafford Lannister</text>
        </g>
        <g>
            <circle cx="132.3" cy="663.8" r="30" />
            <text transform="matrix(1 0 0 1 11.9412 663.8079)" class="st18 st19">Tyrion Lannister</text>
        </g>
        <g>
            <circle cx="132.3" cy="739" r="16.6" />
            <text transform="matrix(1 0 0 1 27.3748 738.9637)" class="st18 st19">Tywin Lannister</text>
        </g>
        <g>
            <circle cx="132.3" cy="788.8" r="4.7" />
            <text transform="matrix(1 0 0 1 33.9412 788.8098)" class="st18 st19">Willem Lannister</text>
        </g>
    </g>
</svg>
