<svg xmlns="http://www.w3.org/2000/svg" viewBox="0 0 100 100">
    <style type="text/css">
        * {
            transition: all ease 1s;
        }
        #encima {
            fill: #D1D3D4;
        }
        #encima:hover {
            opacity: 0;
        }
    </style>
    <defs>
        <clipPath id="clipping">
            <path d="M91.33,88.22H8.92c-2.22,0-3.57-1.23-3.57-3a4.63,4.63,0,0,1,.61-2L17.77,62.51c5.17-9,16.36-13.9,27.06-13.9,11.57,0,17.35,5.54,17.35,10.46,0,4.3-3.32,7.13-6.77,8.12H53.07a3.49,3.49,0,0,0-3.56-3.82,3.42,3.42,0,0,0-3.32,3.45c0,3.81,4.79,7.5,13.16,7.5,7.75,0,18-3.57,24.6-9.1L94.28,83.3a3.51,3.51,0,0,1,.37,1.84A3,3,0,0,1,91.33,88.22Zm-10.21-28L52.71,10.36a3.19,3.19,0,0,0-5.66,0L26.14,47.51a36.15,36.15,0,0,1,12.67-4.06L49.88,23.89,73.37,64.36A19.72,19.72,0,0,0,81.12,60.17Z"></path>
        </clipPath>
    </defs>
    <image height="100%" width="100%" preserveAspectRatio="xMinYMin slice" href="https://los40.com/los40/imagenes/2022/06/22/actualidad/1655915185_760255_1655916653_gigante_normal.jpg" clip-path="url(#clipping)" />
    <rect x="0" y="0" width="100" height="100" clip-path="url(#clipping)" id="encima"></rect>
    <path d="M91.33,88.22H8.92c-2.22,0-3.57-1.23-3.57-3a4.63,4.63,0,0,1,.61-2L17.77,62.51c5.17-9,16.36-13.9,27.06-13.9,11.57,0,17.35,5.54,17.35,10.46,0,4.3-3.32,7.13-6.77,8.12H53.07a3.49,3.49,0,0,0-3.56-3.82,3.42,3.42,0,0,0-3.32,3.45c0,3.81,4.79,7.5,13.16,7.5,7.75,0,18-3.57,24.6-9.1L94.28,83.3a3.51,3.51,0,0,1,.37,1.84A3,3,0,0,1,91.33,88.22Zm-10.21-28L52.71,10.36a3.19,3.19,0,0,0-5.66,0L26.14,47.51a36.15,36.15,0,0,1,12.67-4.06L49.88,23.89,73.37,64.36A19.72,19.72,0,0,0,81.12,60.17Z" fill="none" stroke="black" stroke-linecap="round" stroke-width="0.25"></path>
</svg>